<svg width="658" height="457" viewBox="0 0 658 457" fill="none" xmlns="http://www.w3.org/2000/svg">
<g clip-path="url(#clip0_50_2)">
<path d="M598.464 454.293H56.015V456.256H598.464V454.293Z" fill="url(#paint0_linear_50_2)"/>
<g opacity="0.2">
<path d="M299.934 236.331C292.872 242.25 286.345 248.779 280.429 255.843L301.047 267.818C306.966 260.761 313.493 254.236 320.552 248.318L299.934 236.331Z" fill="#63BDFE"/>
<path d="M312.854 226.869C310.428 228.404 308.019 230.066 305.628 231.853L326.246 243.828C328.642 242.048 331.064 240.386 333.472 238.855L312.854 226.869Z" fill="#63BDFE"/>
<path d="M325.866 219.828C323.457 220.901 321.035 222.106 318.627 223.44L325.892 227.667C328.318 226.332 330.736 225.128 333.144 224.055L325.866 219.828Z" fill="#63BDFE"/>
<path d="M338.447 227.13C336.038 228.203 333.621 229.407 331.195 230.742L423.026 284.084C425.448 282.777 427.857 281.532 430.265 280.473L338.447 227.13Z" fill="#63BDFE"/>
<path d="M338.682 215.39C336.283 215.973 333.915 216.676 331.587 217.497L338.862 221.724C341.187 220.887 343.555 220.175 345.957 219.591L338.682 215.364V215.39Z" fill="#63BDFE"/>
<path d="M351.262 222.733C348.863 223.328 346.494 224.044 344.167 224.88L383.885 247.939C386.21 247.098 388.578 246.382 390.979 245.793L351.262 222.733Z" fill="#63BDFE"/>
<path d="M396.621 249.038C394.22 249.622 391.851 250.334 389.526 251.172L435.998 278.17C438.325 277.334 440.693 276.618 443.093 276.023L396.621 249.038Z" fill="#63BDFE"/>
<path d="M351.027 213.717C348.752 213.761 346.483 213.952 344.233 214.289L351.498 218.516C353.752 218.179 356.026 217.988 358.305 217.944L351.027 213.717Z" fill="#63BDFE"/>
<path d="M443.512 260.254C441.34 260.51 439.155 260.647 436.967 260.662L444.232 264.889C446.42 264.874 448.605 264.738 450.777 264.481L443.512 260.254Z" fill="#63BDFE"/>
<path d="M429.951 252.402C427.778 252.658 425.593 252.795 423.406 252.81L430.67 257.037C432.858 257.023 435.044 256.886 437.216 256.629L429.964 252.402H429.951Z" fill="#63BDFE"/>
<path d="M375.323 220.679C373.151 220.936 370.965 221.072 368.778 221.087L417.213 249.185C419.401 249.171 421.586 249.034 423.759 248.777L375.39 220.679H375.323Z" fill="#63BDFE"/>
<path d="M387.707 218.035C385.337 218.755 383.007 219.348 380.716 219.815L392 226.359C394.289 225.9 396.621 225.296 398.991 224.579L387.707 218.035Z" fill="#63BDFE"/>
<path d="M406.283 228.818C403.9 229.538 401.566 230.131 399.279 230.598L429.114 247.912C431.403 247.441 433.735 246.85 436.104 246.119L406.296 228.818H406.283Z" fill="#63BDFE"/>
<path d="M362.744 213.376C360.571 213.633 358.386 213.769 356.198 213.784L363.473 218.012C365.66 217.997 367.846 217.861 370.018 217.603L362.753 213.376H362.744Z" fill="#63BDFE"/>
<path d="M375.139 210.719C372.769 211.455 370.426 212.027 368.136 212.512L375.411 216.739C377.699 216.268 380.031 215.677 382.401 214.946L375.139 210.719Z" fill="#63BDFE"/>
<path d="M388.257 205.524C385.75 206.728 383.289 207.801 380.873 208.743L388.138 212.957C390.573 212.024 393.034 210.955 395.522 209.751L388.257 205.524Z" fill="#63BDFE"/>
<path d="M401.819 197.75C399.686 199.164 397.525 200.485 395.352 201.742L394.252 202.37L401.517 206.598L402.63 205.969C404.803 204.713 406.955 203.382 409.087 201.977L401.819 197.75Z" fill="#63BDFE"/>
<path d="M414.935 187.909C412.57 189.916 410.161 191.818 407.709 193.615L414.984 197.843C417.419 196.037 419.841 194.139 422.21 192.136L414.935 187.909Z" fill="#63BDFE"/>
<path d="M427.358 176.34C425.133 178.628 422.855 180.855 420.538 182.988L427.813 187.215C430.117 185.083 432.394 182.858 434.62 180.567L427.355 176.34H427.358Z" fill="#63BDFE"/>
<path d="M442.334 249.758C439.96 250.473 437.63 251.067 435.344 251.538L442.608 255.752C444.897 255.293 447.229 254.69 449.599 253.972L442.334 249.758Z" fill="#63BDFE"/>
<path d="M455.451 244.549C452.964 245.753 450.503 246.826 448.068 247.768L455.333 251.982C457.767 251.049 460.229 249.975 462.716 248.763L455.451 244.549Z" fill="#63BDFE"/>
<path d="M450.49 226.018C448.36 227.431 446.205 228.766 444.023 230.022L442.924 230.65L468.725 245.622L469.824 244.993C471.998 243.686 474.156 242.378 476.282 240.989L450.493 226.018H450.49Z" fill="#63BDFE"/>
<path opacity="0.5" d="M463.606 216.19C461.236 218.179 458.828 220.112 456.381 221.896L482.186 236.864C484.634 235.058 487.043 233.148 489.411 231.158L463.606 216.19Z" fill="#63BDFE"/>
<path opacity="0.5" d="M494.566 215.366C492.34 217.654 490.076 219.88 487.759 222.014L495.024 226.228C497.328 224.095 499.605 221.883 501.831 219.593L494.566 215.366Z" fill="#63BDFE"/>
<path d="M455.844 257.597C453.473 258.332 451.144 258.904 448.853 259.39L456.118 263.604C458.482 263.132 460.82 262.538 463.122 261.824L455.844 257.597Z" fill="#63BDFE"/>
<path d="M468.961 252.402C466.474 253.605 464.013 254.679 461.578 255.621L468.852 259.835C471.27 258.901 473.731 257.828 476.236 256.616L468.961 252.402Z" fill="#63BDFE"/>
<path d="M482.536 244.628C480.406 246.032 478.25 247.363 476.068 248.62C475.702 248.829 475.333 249.052 474.969 249.248L482.234 253.475L483.346 252.847C485.52 251.591 487.672 250.283 489.804 248.925L482.539 244.697L482.536 244.628Z" fill="#63BDFE"/>
<path d="M495.652 234.786C493.287 236.784 490.879 238.686 488.427 240.492L495.701 244.719C498.136 242.914 500.545 241.003 502.927 239.013L495.652 234.786Z" fill="#63BDFE"/>
<path d="M508.076 223.218C505.837 225.506 503.573 227.732 501.255 229.866L508.522 234.08C510.835 231.951 513.108 229.739 515.342 227.445L508.076 223.218Z" fill="#63BDFE"/>
<path opacity="0.5" d="M507.657 200.59C506.401 202.003 505.157 203.442 503.927 204.908C503.01 205.994 502.094 207.081 501.165 208.141L508.43 212.368C509.359 211.295 510.275 210.222 511.192 209.136C512.422 207.652 513.666 206.213 514.922 204.817L507.657 200.59Z" fill="#63BDFE"/>
<path opacity="0.5" d="M521.219 208.443C519.963 209.838 518.719 211.278 517.489 212.761C516.572 213.847 515.656 214.934 514.727 215.994L521.992 220.221C522.934 219.148 523.851 218.075 524.771 216.988C526.001 215.505 527.245 214.066 528.501 212.67L521.219 208.443Z" fill="#63BDFE"/>
<path d="M400.824 212.827C398.337 214.031 395.876 215.104 393.441 216.046L400.715 220.273C403.141 219.331 405.603 218.258 408.099 217.054L400.824 212.827Z" fill="#63BDFE"/>
<path d="M413.784 220.351C411.277 221.555 408.816 222.628 406.4 223.571L441.824 244.147C444.258 243.204 446.72 242.131 449.207 240.927L413.784 220.351Z" fill="#63BDFE"/>
<path d="M427.345 212.577C425.216 213.991 423.06 215.325 420.878 216.582L419.779 217.21L436.679 227.025L437.778 226.396C439.952 225.14 442.107 223.805 444.245 222.392L427.345 212.577Z" fill="#63BDFE"/>
<path opacity="0.5" d="M440.462 202.75C438.097 204.738 435.688 206.641 433.236 208.456L450.137 218.271C452.585 216.465 454.994 214.554 457.362 212.564L440.462 202.75Z" fill="#63BDFE"/>
<path opacity="0.5" d="M452.885 191.168C450.66 193.471 448.387 195.687 446.065 197.816L481.475 218.389C483.78 216.256 486.057 214.031 488.283 211.741L452.859 191.168H452.885Z" fill="#63BDFE"/>
<path opacity="0.3" d="M466.042 176.392C464.734 177.806 463.529 179.245 462.299 180.711C461.395 181.81 460.466 182.884 459.537 183.944L494.973 204.516C495.902 203.454 496.819 202.37 497.735 201.284C498.965 199.8 500.209 198.361 501.466 196.965L466.042 176.392Z" fill="#63BDFE"/>
<path opacity="0.3" d="M440.515 161.565C439.207 162.965 438.002 164.418 436.771 165.884C435.868 166.97 434.939 168.056 434.009 169.116L453.855 180.645C454.797 179.583 455.714 178.5 456.634 177.413C457.864 175.947 459.108 174.507 460.365 173.094L440.515 161.565Z" fill="#63BDFE"/>
<path d="M414.399 205.053C412.269 206.466 410.114 207.801 407.932 209.057L406.859 209.646L414.124 213.873L415.236 213.232C417.41 211.984 419.562 210.654 421.694 209.24L414.429 205.013L414.399 205.053Z" fill="#63BDFE"/>
<path d="M427.515 195.25C425.145 197.239 422.737 199.173 420.29 200.957L427.564 205.171C429.999 203.365 432.408 201.467 434.79 199.478L427.515 195.25Z" fill="#63BDFE"/>
<path d="M439.936 183.643C437.697 185.946 435.433 188.158 433.115 190.291L440.38 194.518C442.698 192.386 444.975 190.16 447.201 187.87L439.936 183.643Z" fill="#63BDFE"/>
<path d="M363.659 221.019C361.384 221.062 359.114 221.259 356.865 221.608L418.758 257.545C421.008 257.208 423.277 257.012 425.552 256.956L363.659 221.019Z" fill="#63BDFE"/>
<path d="M431.731 260.594C429.456 260.637 427.186 260.828 424.936 261.166L448.617 274.933C450.868 274.597 453.137 274.401 455.411 274.344L431.731 260.594Z" fill="#63BDFE"/>
<path d="M456.158 267.634C453.986 267.891 451.8 268.028 449.613 268.043L460.596 274.417C462.784 274.408 464.97 274.272 467.142 274.008L456.158 267.634Z" fill="#63BDFE"/>
<path d="M468.555 264.978C466.184 265.713 463.856 266.285 461.565 266.77L472.548 273.144C474.837 272.686 477.169 272.082 479.538 271.364L468.555 264.978V264.978Z" fill="#63BDFE"/>
<path d="M481.672 259.782C479.185 260.986 476.711 262.06 474.289 263.002L485.272 269.376C487.694 268.446 490.168 267.373 492.656 266.156L481.672 259.782Z" fill="#63BDFE"/>
<path d="M495.234 252.009C493.104 253.404 490.952 254.712 488.776 255.931C488.41 256.153 488.03 256.363 487.664 256.559L498.647 262.945L499.76 262.317C501.933 261.061 504.085 259.726 506.217 258.313L495.234 251.939V252.009Z" fill="#63BDFE"/>
<path d="M508.363 242.168C505.981 244.165 503.572 246.067 501.138 247.874L512.121 254.26C514.556 252.454 516.965 250.543 519.347 248.554L508.363 242.168Z" fill="#63BDFE"/>
<path d="M520.748 230.585C518.522 232.873 516.245 235.1 513.927 237.234L524.937 243.672C527.258 241.543 529.532 239.331 531.757 237.037L520.748 230.585Z" fill="#63BDFE"/>
<path opacity="0.5" d="M533.93 215.823C532.673 217.219 531.43 218.658 530.199 220.142C529.283 221.228 528.367 222.315 527.437 223.375L538.421 229.761C539.35 228.688 540.266 227.614 541.183 226.528C542.413 225.053 543.656 223.614 544.913 222.209L533.93 215.823Z" fill="#63BDFE"/>
<path opacity="0.5" d="M521.624 186.835C519.268 188.877 516.938 191.058 514.634 193.379L551.837 214.881C554.141 212.617 556.471 210.445 558.828 208.403L521.624 186.835Z" fill="#63BDFE"/>
<path opacity="0.3" d="M454.416 147.797C452.073 149.852 449.73 152.011 447.426 154.341L508.39 189.741C510.693 187.464 513.024 185.283 515.38 183.197L454.416 147.863V147.797Z" fill="#63BDFE"/>
<path d="M339.205 242.181C336.797 243.725 334.392 245.387 331.992 247.165L366.421 267.227C368.817 265.434 371.239 263.772 373.647 262.243L339.205 242.246V242.181Z" fill="#63BDFE"/>
<path d="M379.368 265.528C376.95 267.063 374.542 268.721 372.142 270.501L388.06 279.753C390.451 277.956 392.86 276.294 395.286 274.769L379.368 265.528Z" fill="#63BDFE"/>
<path d="M401.334 278.261C389.124 286.233 378.188 296.001 368.895 307.236L384.813 316.476C394.106 305.249 405.037 295.485 417.239 287.514L401.321 278.261H401.334Z" fill="#63BDFE"/>
<path d="M326.285 251.656C319.226 257.573 312.7 264.098 306.78 271.155L362.9 303.742C368.816 296.682 375.343 290.157 382.405 284.242L326.285 251.656Z" fill="#63BDFE"/>
<path opacity="0.3" d="M550.856 178.683C546.688 181.1 542.675 183.775 538.84 186.691L461.749 141.911C465.588 139.003 469.6 136.333 473.765 133.915L550.856 178.683Z" fill="#63BDFE"/>
<path opacity="0.5" d="M578.1 194.544C573.935 196.966 569.923 199.64 566.084 202.552L546.353 191.093C550.188 188.181 554.201 185.51 558.368 183.097L578.1 194.544Z" fill="#63BDFE"/>
<path opacity="0.4" d="M115.669 385.901C111.408 389.124 106.953 392.082 102.33 394.761L81.7122 382.773C86.3336 380.092 90.7884 377.133 95.052 373.913L115.669 385.901Z" fill="#63BDFE"/>
<path opacity="0.4" d="M107.828 363.156C105.524 365.302 103.181 367.383 100.798 369.359L121.478 381.346C123.852 379.357 126.191 377.285 128.495 375.13L107.88 363.156H107.828Z" fill="#63BDFE"/>
<path opacity="0.4" d="M119.807 350.789C117.673 353.21 115.474 355.579 113.261 357.856L120.526 362.083C122.76 359.795 124.942 357.439 127.072 355.016L119.797 350.789H119.807Z" fill="#63BDFE"/>
<path opacity="0.2" d="M132.386 358.091C130.239 360.525 128.057 362.881 125.841 365.158L217.672 418.487C219.906 416.21 222.088 413.854 224.218 411.42L132.386 358.091Z" fill="#63BDFE"/>
<path opacity="0.4" d="M131.666 337.466C129.377 339.796 127.137 342.256 124.924 344.808L132.199 349.035C134.399 346.483 136.65 344.023 138.928 341.681L131.666 337.466Z" fill="#63BDFE"/>
<path opacity="0.4" d="M144.234 344.769C141.956 347.112 139.704 349.559 137.505 352.111L177.222 375.17C179.422 372.555 181.673 370.171 183.951 367.828L144.234 344.769Z" fill="#63BDFE"/>
<path opacity="0.2" d="M189.553 371.099C187.275 373.442 185.024 375.889 182.824 378.454L229.285 405.439C231.493 402.891 233.74 400.444 236.027 398.098L189.553 371.099Z" fill="#63BDFE"/>
<path d="M144.246 325.924C141.863 327.86 139.507 329.91 137.177 332.074L144.442 336.301C146.772 334.129 149.141 332.074 151.511 330.151L144.246 325.924Z" fill="#63BDFE"/>
<path opacity="0.4" d="M237.897 363.536C235.479 365.028 233.067 366.651 230.658 368.404L237.933 372.631C240.329 370.878 242.75 369.255 245.172 367.763L237.897 363.536Z" fill="#63BDFE"/>
<path opacity="0.4" d="M205.851 344.939C203.442 346.431 201.02 348.054 198.625 349.807L224.414 364.778C226.823 363.035 229.235 361.412 231.653 359.91L205.851 344.939Z" fill="#63BDFE"/>
<path opacity="0.4" d="M169.76 323.961C167.343 325.462 164.93 327.084 162.521 328.829L192.381 346.169C194.777 344.429 197.199 342.806 199.607 341.301L169.76 323.961Z" fill="#63BDFE"/>
<path d="M182.772 317.155C180.363 318.176 177.951 319.337 175.533 320.637L186.817 327.18C189.243 325.889 191.656 324.729 194.056 323.699L182.772 317.155Z" fill="#63BDFE"/>
<path d="M201.334 327.939C198.926 328.96 196.513 330.12 194.095 331.42L205.379 337.963C207.805 336.664 210.218 335.503 212.618 334.482L201.334 327.939Z" fill="#63BDFE"/>
<path d="M157.179 316.658C154.771 318.15 152.349 319.773 149.954 321.526L157.219 325.754C159.627 324.01 162.04 322.387 164.458 320.885L157.179 316.658Z" fill="#63BDFE"/>
<path d="M170.192 309.839C167.783 310.878 165.374 312.038 162.966 313.321L170.231 317.548C172.653 316.24 175.062 315.1 177.457 314.067L170.192 309.839Z" fill="#63BDFE"/>
<path d="M183.007 305.638C180.613 306.183 178.249 306.856 175.926 307.654L183.2 311.868C185.525 311.079 187.889 310.41 190.282 309.866L183.007 305.638Z" fill="#63BDFE"/>
<path d="M195.274 304.226C193.011 304.216 190.75 304.36 188.506 304.658L195.781 308.885C198.02 308.589 200.277 308.441 202.536 308.44L195.274 304.226Z" fill="#63BDFE"/>
<path d="M206.99 303.754C204.82 304.053 202.635 304.228 200.445 304.278L207.71 308.505C209.9 308.449 212.085 308.274 214.255 307.981L206.99 303.754Z" fill="#63BDFE"/>
<path d="M219.452 300.875C217.139 301.631 214.788 302.269 212.41 302.786L219.662 307.013C222.04 306.495 224.39 305.857 226.704 305.102L219.43 300.875H219.452Z" fill="#63BDFE"/>
<path opacity="0.4" d="M218.863 338.12C216.454 339.141 214.046 340.302 211.637 341.601L237.426 356.573C239.843 355.273 242.256 354.112 244.665 353.092L218.863 338.12Z" fill="#63BDFE"/>
<path opacity="0.4" d="M231.653 333.972C229.258 334.512 226.894 335.18 224.571 335.974L250.373 350.945C252.695 350.15 255.059 349.482 257.455 348.943L231.653 333.972Z" fill="#63BDFE"/>
<path opacity="0.4" d="M262.465 343.25C260.206 343.247 257.95 343.391 255.71 343.682L262.975 347.909C265.215 347.614 267.471 347.465 269.73 347.464L262.465 343.25Z" fill="#63BDFE"/>
<path d="M274.185 342.78C272.015 343.08 269.829 343.255 267.639 343.304L274.891 347.531C277.081 347.475 279.266 347.3 281.437 347.007L274.172 342.78H274.185Z" fill="#63BDFE"/>
<path d="M286.66 339.913C284.277 340.672 281.919 341.314 279.617 341.824L286.882 346.038C289.186 345.527 291.541 344.9 293.925 344.127L286.66 339.913Z" fill="#63BDFE"/>
<path opacity="0.4" d="M250.912 356.717C248.504 357.756 246.091 358.916 243.673 360.198L250.948 364.425C253.357 363.118 255.779 361.978 258.174 360.944L250.912 356.717Z" fill="#63BDFE"/>
<path opacity="0.4" d="M263.699 352.516C261.304 353.061 258.94 353.734 256.617 354.531L263.891 358.745C266.214 357.95 268.578 357.282 270.973 356.743L263.699 352.516Z" fill="#63BDFE"/>
<path d="M275.949 351.089C273.69 351.09 271.433 351.239 269.194 351.535L276.459 355.762C278.703 355.467 280.964 355.318 283.227 355.317L275.949 351.089Z" fill="#63BDFE"/>
<path d="M287.734 350.632C285.563 350.925 283.378 351.1 281.188 351.156L288.453 355.383C290.643 355.327 292.828 355.152 294.999 354.859L287.734 350.632Z" fill="#63BDFE"/>
<path d="M300.169 347.752C297.855 348.507 295.504 349.144 293.126 349.663L300.401 353.89C302.705 353.379 305.048 352.752 307.444 351.979L300.169 347.752Z" fill="#63BDFE"/>
<path d="M301.491 333.619C298.978 334.926 296.495 336.104 294.043 337.152L301.308 341.366C303.76 340.337 306.243 339.163 308.756 337.846L301.491 333.619Z" fill="#63BDFE"/>
<path d="M315.001 341.471C312.488 342.778 310.005 343.956 307.552 345.004L314.817 349.218C317.278 348.189 319.766 347.015 322.279 345.698L315.001 341.471Z" fill="#63BDFE"/>
<path d="M195.562 312.941C193.168 313.492 190.805 314.165 188.48 314.956L195.755 319.184C198.079 318.39 200.443 317.718 202.837 317.169L195.562 312.941Z" fill="#63BDFE"/>
<path d="M208.508 320.467C206.115 321.018 203.751 321.69 201.427 322.482L218.327 332.297C220.65 331.503 223.014 330.835 225.409 330.295L208.508 320.467Z" fill="#63BDFE"/>
<path d="M220.801 319.053C218.538 319.049 216.277 319.193 214.033 319.484L249.469 340.054C251.709 339.758 253.965 339.61 256.224 339.609L220.801 319.053Z" fill="#63BDFE"/>
<path d="M232.517 318.581C230.346 318.879 228.161 319.058 225.971 319.118L261.394 339.678C263.584 339.622 265.769 339.447 267.94 339.154L232.517 318.581Z" fill="#63BDFE"/>
<path d="M244.979 315.716C242.596 316.474 240.249 317.111 237.936 317.626L273.333 338.186C275.711 337.667 278.062 337.03 280.376 336.275L244.939 315.716H244.979Z" fill="#63BDFE"/>
<path d="M259.811 309.421C257.311 310.729 254.828 311.906 252.362 312.954L287.799 333.527C290.251 332.48 292.734 331.302 295.247 329.994L259.811 309.421Z" fill="#63BDFE"/>
<path d="M234.284 294.594C231.788 295.901 229.305 297.079 226.835 298.127L246.698 309.656C249.146 308.61 251.633 307.444 254.147 306.123L234.284 294.594Z" fill="#63BDFE"/>
<path d="M207.881 311.528C205.618 311.524 203.357 311.668 201.113 311.959L208.387 316.186C210.627 315.895 212.884 315.751 215.142 315.755L207.881 311.528Z" fill="#63BDFE"/>
<path d="M219.557 311.057C217.387 311.361 215.202 311.54 213.011 311.594L220.276 315.808C222.466 315.758 224.652 315.584 226.822 315.284L219.547 311.057H219.557Z" fill="#63BDFE"/>
<path d="M232.032 308.19C229.65 308.949 227.302 309.586 224.989 310.101L232.264 314.328C234.568 313.813 236.916 313.172 239.307 312.405L232.032 308.19Z" fill="#63BDFE"/>
<path opacity="0.4" d="M156.826 333.226C154.453 335.162 152.096 337.217 149.758 339.389L211.65 375.326C213.981 373.154 216.35 371.099 218.719 369.163L156.826 333.226Z" fill="#63BDFE"/>
<path opacity="0.4" d="M224.898 372.801C222.524 374.737 220.168 376.787 217.829 378.951L241.524 392.719C243.854 390.546 246.21 388.492 248.592 386.555L224.898 372.801Z" fill="#63BDFE"/>
<path opacity="0.4" d="M250.608 370.916C248.191 372.408 245.778 374.031 243.369 375.785L254.353 382.159C256.761 380.415 259.174 378.792 261.591 377.29L250.608 370.916Z" fill="#63BDFE"/>
<path opacity="0.4" d="M263.607 364.072C261.211 365.105 258.789 366.271 256.381 367.553L267.365 373.939C269.773 372.631 272.195 371.478 274.59 370.458L263.607 364.072Z" fill="#63BDFE"/>
<path d="M276.407 359.897C274.011 360.44 271.647 361.113 269.325 361.912L280.308 368.286C282.631 367.491 284.995 366.822 287.39 366.284L276.407 359.897Z" fill="#63BDFE"/>
<path d="M288.689 358.471C286.433 358.471 284.18 358.619 281.944 358.915L292.915 365.302C295.155 365.006 297.411 364.857 299.67 364.857L288.689 358.471Z" fill="#63BDFE"/>
<path d="M300.405 358.012C298.234 358.305 296.049 358.48 293.859 358.536L304.843 364.922C307.033 364.866 309.218 364.692 311.388 364.399L300.405 358.012Z" fill="#63BDFE"/>
<path d="M312.88 355.134C310.566 355.888 308.216 356.526 305.838 357.044L316.821 363.43C319.125 362.919 321.48 362.292 323.863 361.52L312.88 355.134Z" fill="#63BDFE"/>
<path d="M327.713 348.852C325.199 350.16 322.716 351.337 320.264 352.386L331.247 358.759C333.699 357.721 336.182 356.548 338.696 355.239L327.713 348.852Z" fill="#63BDFE"/>
<path d="M316.664 324.209C314.203 325.976 311.715 327.651 309.202 329.209L346.405 350.816C348.919 349.258 351.406 347.583 353.867 345.816L316.664 324.209Z" fill="#63BDFE"/>
<path d="M249.456 285.184C247.004 286.927 244.521 288.594 242.008 290.184L302.958 325.584C305.471 324.013 307.958 322.347 310.42 320.584L249.456 285.184Z" fill="#63BDFE"/>
<path opacity="0.2" d="M134.18 378.467C131.891 380.623 129.552 382.69 127.163 384.671L161.605 404.641C163.975 402.665 166.317 400.584 168.621 398.438L134.18 378.467Z" fill="#63BDFE"/>
<path opacity="0.2" d="M174.381 401.801C172.077 403.965 169.738 406.033 167.364 408.004L183.269 417.257C185.652 415.281 187.994 413.2 190.299 411.054L174.381 401.801Z" fill="#63BDFE"/>
<path opacity="0.2" d="M212.227 423.788C204.298 431.305 195.536 437.891 186.111 443.418L170.205 434.166C179.621 428.631 188.378 422.045 196.308 414.535L212.226 423.775L212.227 423.788Z" fill="#63BDFE"/>
<path opacity="0.2" d="M177.524 421.813C173.262 425.035 168.806 427.993 164.183 430.671L108.077 398.097C112.722 395.416 117.199 392.452 121.482 389.225L177.588 421.813H177.524Z" fill="#63BDFE"/>
<path d="M275.415 261.64C269.683 268.038 263.482 274 256.865 279.478L333.956 324.248C340.579 318.777 346.78 312.814 352.506 306.411L275.415 261.64Z" fill="#63BDFE"/>
<path d="M360.085 310.808C354.357 317.212 348.156 323.179 341.536 328.659L361.264 340.109C367.887 334.638 374.088 328.675 379.814 322.272L360.085 310.808Z" fill="#63BDFE"/>
</g>
<path opacity="0.5" d="M261.076 314.328L282.491 292.919H375.527L396.498 314.328L405.988 305.377V292.971L386.482 273.471H271.546L251.504 293.415L256.806 310.808L261.076 314.328Z" fill="url(#paint1_linear_50_2)"/>
<path d="M528.045 312.876H506.458L506.311 312.719L491.345 296.714H403.841L403.694 296.57L382.555 273.983H275.432L254.16 296.714H166.655L151.543 312.877H129.951V311.843H151.138L166.251 295.694H253.755L275.04 272.963H382.958L383.093 273.107L404.233 295.694H491.737L491.884 295.851L506.85 311.844H528.045V312.876Z" fill="#FFB70D"/>
<path d="M382.958 364.215H275.04L274.893 364.072L253.754 341.484H166.251L166.116 341.327L151.138 325.321H129.951V324.301H151.543L151.678 324.445L166.655 340.45H254.16L254.294 340.607L275.432 363.195H382.555L403.84 340.45H491.345L506.458 324.301H528.045V325.321H506.85L491.737 341.484H404.233L382.958 364.215Z" fill="#FFB70D"/>
<path d="M375.734 344.769H282.266L282.122 344.625L256.072 318.582L282.253 292.409H375.72L375.864 292.553L401.915 318.582L375.734 344.769ZM282.698 343.748H375.301L400.477 318.58L375.301 293.401H282.698L257.522 318.58L282.698 343.748Z" fill="#FFB70D"/>
<path d="M241.039 318.072H89.671V319.092H241.039V318.072Z" fill="#FFB70D"/>
<path d="M568.329 318.072H416.961V319.092H568.329V318.072Z" fill="#FFB70D"/>
<path opacity="0.65" d="M488.103 282.292V0.255859H169.921V281.415L204.689 238.359L279.411 161.562H343.086L387.948 178.471L447.863 206.477L463.65 259.78L488.103 282.292Z" fill="url(#paint2_linear_50_2)"/>
<path d="M424.552 241.055C422.218 230.336 417.655 220.229 411.161 211.387C404.997 203.032 397.437 195.802 388.815 190.016C380.206 184.209 370.764 179.744 360.814 176.772C350.494 173.655 339.771 172.072 328.99 172.074C327.682 172.074 326.477 172.074 325.23 172.14H323.987C322.966 172.14 321.958 172.244 320.949 172.31H320.363L319.056 172.401C317.432 172.558 315.809 172.728 314.199 172.951L312.955 173.121L312.405 173.203L309.421 173.687L308.897 173.792L308.282 173.91C307.219 174.106 306.161 174.328 305.1 174.551L304.655 174.656H304.38C303.333 174.891 302.299 175.153 301.264 175.428L300.518 175.624L299.432 175.899L297.416 176.488L297.171 176.57H297.105L294.592 177.368L293.793 177.642L293.047 177.888C291.974 178.267 290.9 178.647 289.84 179.052H289.604C288.542 179.461 287.497 179.89 286.462 180.359L285.794 180.857C285.572 180.949 285.362 181.027 285.153 181.132C284.289 181.498 283.451 181.891 282.613 182.283L282.26 182.453L280.597 183.264C280.189 183.461 279.799 183.673 279.406 183.88L278.834 184.167C277.962 184.639 277.09 185.123 276.219 185.62L275.879 185.816L275.355 186.117C274.491 186.615 273.638 187.125 272.739 187.649L272.189 187.988L271.862 188.185L270.252 189.247C269.898 189.482 269.516 189.705 269.165 189.954L269.008 190.071C268.157 190.643 267.333 191.236 266.508 191.838L265.936 192.247C264.941 192.993 263.946 193.752 262.978 194.524L262.324 195.087C261.63 195.65 261.016 196.199 260.28 196.788L260.084 196.958L259.115 197.835C258.5 198.385 257.885 198.934 257.296 199.51C256.943 199.837 256.602 200.191 256.249 200.531C255.896 200.871 255.385 201.355 254.941 201.838C254.81 201.956 254.706 202.084 254.575 202.218C254.209 202.597 253.855 202.99 253.489 203.382C253.122 203.774 252.494 204.444 252.022 204.979L250.936 206.286C250.635 206.626 250.32 206.967 250.033 207.32L249.601 207.87C249.192 208.381 248.789 208.877 248.397 209.401C248.005 209.925 247.611 210.409 247.219 210.933L246.8 211.482C246.341 212.111 245.884 212.79 245.492 213.406C245.469 213.455 245.438 213.499 245.4 213.537C245.36 213.616 245.312 213.69 245.257 213.759C244.603 214.74 243.949 215.72 243.332 216.729L243.136 217.069C242.508 218.09 241.919 219.112 241.343 220.158C241.318 220.191 241.296 220.226 241.278 220.263C241.094 220.59 240.924 220.917 240.754 221.257L240.427 221.873C240.204 222.281 240.008 222.697 239.798 223.102C239.707 223.299 239.615 223.482 239.51 223.674C239.301 224.107 239.102 224.538 238.895 224.982L238.659 225.506C238.45 225.964 238.241 226.422 238.044 226.88C238.044 227.037 237.9 227.194 237.835 227.365C237.839 227.399 237.839 227.435 237.835 227.469L237.337 228.777C237.255 228.96 237.18 229.143 237.115 229.327L236.604 230.634C236.538 230.83 236.46 231.026 236.381 231.223C236.237 231.656 236.081 232.074 235.936 232.531L235.7 233.211C235.57 233.62 235.439 234.023 235.321 234.441C235.203 234.86 235.151 234.939 235.086 235.187V235.269C234.929 235.754 234.798 236.237 234.653 236.722C234.663 236.814 234.64 236.907 234.588 236.983L234.47 237.442C234.389 237.687 234.326 237.953 234.261 238.201L234.104 238.855C234.079 239.029 234.035 239.2 233.973 239.365L233.892 239.705C233.774 240.203 233.656 240.7 233.552 241.211C233.355 242.127 233.172 243.03 233.015 243.946C232.99 244.223 232.946 244.499 232.884 244.77C232.766 245.438 232.674 246.078 232.583 246.759C232.583 246.929 232.518 247.099 232.501 247.257V247.623C232.397 248.408 232.305 249.193 232.24 249.979V250.387C232.158 251.303 232.096 252.219 232.043 253.122V259.599C232.044 260.473 232.096 261.346 232.2 262.214V262.96C232.227 263.652 232.292 264.343 232.397 265.027V265.957C232.462 266.506 232.54 267.056 232.619 267.591C232.641 267.908 232.689 268.223 232.763 268.533C232.867 269.135 232.972 269.737 233.09 270.339C233.105 270.538 233.14 270.736 233.194 270.928C233.199 270.972 233.199 271.015 233.194 271.059C233.364 271.91 233.547 272.76 233.744 273.598L233.862 274.043C234.032 274.737 234.202 275.418 234.386 276.111C234.377 276.194 234.4 276.279 234.451 276.346C234.529 276.546 234.59 276.752 234.635 276.961L234.948 278.073C234.981 278.263 235.038 278.448 235.118 278.623L235.432 279.604C235.602 280.128 235.785 280.638 235.969 281.161C236.035 281.344 236.087 281.527 236.152 281.711L236.309 282.131C236.506 282.667 236.718 283.217 236.925 283.753L237.265 284.617C237.527 285.271 237.802 285.925 238.09 286.567C238.124 286.725 238.186 286.875 238.273 287.012C238.654 287.884 239.047 288.721 239.451 289.525C239.555 289.747 239.673 289.97 239.791 290.193C240.091 290.795 240.406 291.396 240.72 291.999L240.903 292.352L241.178 292.862C241.492 293.412 241.793 293.961 242.12 294.511C242.277 294.786 242.434 295.074 242.605 295.349L242.88 295.807L243.678 297.115C243.796 297.298 243.901 297.481 244.018 297.652L244.11 297.795C244.621 298.594 245.157 299.392 245.694 300.177L245.995 300.597C246.453 301.25 246.911 301.904 247.396 302.52C247.452 302.61 247.513 302.698 247.579 302.782L247.971 303.292L249.201 304.863L249.855 305.674L251.163 307.219L251.595 307.716L251.895 308.07L252.183 308.383L252.562 308.815C252.902 309.181 253.23 309.55 253.57 309.901L253.727 310.071L253.95 310.306L254.591 310.987L255.638 312.049L270.824 327.243C270.352 326.785 269.894 326.301 269.449 325.83L269.266 325.633C268.833 325.175 268.415 324.717 267.958 324.244L267.723 323.999L267.12 323.292C266.754 322.874 266.4 322.455 266.047 321.985C265.864 321.776 265.681 321.553 265.51 321.331C265.157 320.899 264.829 320.467 264.489 320.024L264.004 319.395L262.853 317.825L262.607 317.472C262.149 316.818 261.704 316.164 261.3 315.496L260.946 314.946C260.633 314.461 260.331 313.978 260.03 313.493C259.886 313.258 259.755 313.022 259.612 312.799L258.826 311.492L258.434 310.785C258.159 310.287 257.897 309.79 257.635 309.293C257.544 309.097 257.439 308.914 257.334 308.721C256.994 308.027 256.653 307.332 256.327 306.64C256.296 306.489 256.234 306.346 256.143 306.221C255.898 305.671 255.659 305.135 255.423 304.587C255.319 304.351 255.227 304.102 255.123 303.867C254.939 303.408 254.756 302.964 254.585 302.559C254.415 302.155 254.376 302.023 254.285 301.748C254.193 301.473 253.958 300.884 253.813 300.441C253.668 299.997 253.617 299.904 253.525 299.629C253.434 299.355 253.225 298.7 253.08 298.24C252.998 297.995 252.923 297.755 252.858 297.504C252.687 296.941 252.531 296.379 252.373 295.803L252.255 295.395C252.072 294.688 251.902 293.968 251.744 293.261C251.72 293.052 251.676 292.846 251.613 292.646C251.496 292.135 251.391 291.625 251.286 291.114C251.26 290.846 251.208 290.582 251.13 290.324L250.895 288.935L250.777 288.137C250.686 287.565 250.62 286.972 250.542 286.396L250.46 285.755C250.378 284.969 250.303 284.197 250.251 283.399V283.007C250.251 282.353 250.169 281.699 250.146 281.045V277.891C250.146 277.119 250.146 276.334 250.212 275.548V275.208C250.212 274.528 250.293 273.901 250.355 273.166C250.345 272.919 250.367 272.671 250.421 272.43C250.443 271.855 250.504 271.281 250.604 270.714L250.686 270.007C250.79 269.209 250.895 268.424 251.026 267.637C251.117 267.101 251.222 266.575 251.313 266.041C251.299 265.882 251.331 265.723 251.405 265.582C251.487 265.174 251.575 264.771 251.65 264.366C251.668 264.227 251.699 264.09 251.742 263.957L252.095 262.439C252.37 261.353 252.667 260.279 252.985 259.206V259.01C253.312 257.963 253.653 256.929 254.019 255.895L254.101 255.673C254.467 254.678 254.847 253.684 255.252 252.715L255.357 252.454C255.766 251.486 256.195 250.53 256.665 249.601C256.714 249.508 256.758 249.412 256.796 249.314C257.241 248.398 257.699 247.495 258.185 246.605L258.303 246.278C258.788 245.401 259.284 244.524 259.809 243.663C259.809 243.558 259.926 243.454 259.992 243.349C260.436 242.614 260.908 241.883 261.393 241.15C261.694 240.692 262.008 240.234 262.322 239.843C262.636 239.451 262.951 238.94 263.278 238.535C263.605 238.131 263.972 237.58 264.34 237.108L265.204 235.996C265.583 235.512 265.99 235.041 266.382 234.57L267.259 233.523C267.692 233.038 268.123 232.554 268.567 232.083C269.011 231.611 269.117 231.455 269.405 231.154L270.871 229.675C271.146 229.413 271.395 229.138 271.67 228.876C272.259 228.304 272.874 227.738 273.489 227.188L274.013 226.704C274.812 225.984 275.637 225.29 276.461 224.61L276.972 224.218C277.626 223.677 278.294 223.153 278.975 222.647L279.983 221.912C280.52 221.533 281.045 221.14 281.593 220.774L282.051 220.46C282.745 219.988 283.452 219.531 284.172 219.071L284.604 218.796C285.416 218.285 286.239 217.788 287.078 217.317L287.562 217.042C288.335 216.598 289.12 216.166 289.906 215.735L290.22 215.578C291.084 215.12 291.961 214.688 292.835 214.271L293.385 214.025C294.249 213.617 295.113 213.24 296.001 212.861H296.119C297.022 212.482 297.938 212.126 298.868 211.775L299.483 211.54C300.399 211.213 301.329 210.872 302.262 210.571L302.507 210.49C303.358 210.202 304.235 209.94 305.123 209.691L305.752 209.508C306.694 209.247 307.637 208.998 308.592 208.762L308.971 208.671C309.848 208.461 310.739 208.262 311.587 208.081L312.111 207.964C313.08 207.768 314.061 207.598 315.043 207.44L315.528 207.358C317.556 207.031 319.625 206.786 321.719 206.612H322.23C323.225 206.531 324.233 206.468 325.255 206.429H325.818C326.865 206.429 327.912 206.364 328.973 206.364C338.035 206.352 347.041 207.783 355.652 210.604C363.984 213.338 371.818 217.404 378.849 222.644C385.955 227.92 392.067 234.416 396.901 241.829C402.015 249.703 405.451 258.546 406.994 267.807C407.871 273.05 408.112 278.38 407.714 283.681C407.32 289.001 406.277 294.253 404.608 299.319C402.912 304.518 400.6 309.496 397.722 314.147C394.73 318.982 391.185 323.452 387.158 327.466L402.357 312.272C407.246 307.397 411.528 301.948 415.108 296.044C418.493 290.468 421.163 284.488 423.054 278.246C426.747 266.179 427.261 253.363 424.546 241.04L424.552 241.055Z" fill="url(#paint3_linear_50_2)"/>
<path d="M480.853 241.212C475.031 224.566 466.062 209.193 454.436 195.931C443.882 183.894 431.516 173.576 417.783 165.348C404.559 157.421 390.31 151.345 375.434 147.288C345.027 139.053 312.976 139.053 282.569 147.288C267.694 151.347 253.446 157.423 240.221 165.348C226.487 173.576 214.12 183.895 203.566 195.932C191.939 209.194 182.97 224.566 177.147 241.212C170.732 259.528 168.57 279.062 170.824 298.336C173.386 319.509 181.02 339.752 193.078 357.346C207.055 377.677 225.779 394.297 247.627 405.767C272.737 418.877 300.645 425.724 328.973 425.724C357.3 425.724 385.208 418.877 410.318 405.767C432.167 394.298 450.891 377.678 464.868 357.346C476.932 339.755 484.567 319.511 487.123 298.336C489.394 279.066 487.25 259.532 480.853 241.212ZM422.351 274.924C419.221 286.632 413.434 297.46 405.437 306.568C396.499 316.761 385.454 324.893 373.064 330.4C359.18 336.553 344.161 339.731 328.975 339.731C313.788 339.731 298.769 336.553 284.885 330.4C272.495 324.893 261.449 316.762 252.51 306.568C244.519 297.457 238.732 286.629 235.597 274.924C232.715 263.898 232.473 252.349 234.89 241.212C237.198 230.658 241.698 220.707 248.098 212.002C254.158 203.752 261.599 196.611 270.091 190.893C278.542 185.17 287.81 180.757 297.581 177.806C318.021 171.716 339.793 171.716 360.233 177.806C370.028 180.749 379.319 185.162 387.788 190.893C396.291 196.613 403.744 203.754 409.82 212.003C416.211 220.71 420.702 230.661 423.002 241.213C425.451 252.343 425.235 263.894 422.374 274.925L422.351 274.924Z" fill="url(#paint4_linear_50_2)"/>
<path d="M405.462 306.568C413.458 297.46 419.246 286.632 422.375 274.924C425.267 263.9 425.514 252.349 423.096 241.212C420.795 230.66 416.304 220.709 409.913 212.002C403.845 203.755 396.401 196.615 387.908 190.893C379.438 185.162 370.147 180.749 360.352 177.807C339.912 171.717 318.139 171.717 297.7 177.807C287.928 180.758 278.66 185.17 270.209 190.893C261.675 196.601 254.194 203.743 248.099 212.003C241.708 220.71 237.217 230.661 234.917 241.213C232.5 252.35 232.742 263.899 235.624 274.925C238.759 286.63 244.546 297.458 252.537 306.569C261.475 316.762 272.521 324.893 284.911 330.401C298.797 336.545 313.815 339.718 329 339.718C344.185 339.718 359.203 336.545 373.089 330.401C385.479 324.894 396.525 316.762 405.463 306.569L405.462 306.568ZM328.999 338.579C314.111 338.632 299.384 335.509 285.8 329.418C273.661 324.025 262.839 316.059 254.085 306.071C246.261 297.149 240.599 286.545 237.539 275.081C234.704 264.28 234.461 252.962 236.832 242.05C239.081 231.711 243.479 221.96 249.739 213.429C255.694 205.35 262.997 198.357 271.326 192.755C279.624 187.155 288.726 182.848 298.318 179.982C318.339 174.012 339.667 174.012 359.687 179.982C369.283 182.851 378.388 187.158 386.693 192.755C395.021 198.353 402.319 205.348 408.266 213.429C414.526 221.962 418.927 231.712 421.187 242.05C423.55 252.963 423.308 264.279 420.48 275.081C417.409 286.543 411.744 297.147 403.92 306.071C395.166 316.065 384.345 324.039 372.206 329.441C358.619 335.521 343.892 338.635 329.006 338.576L328.999 338.579Z" fill="#A7F4FE"/>
<path opacity="0.2" d="M329.51 439.073V436.458H331.921V439.073H329.51ZM323.481 438.991L321.07 438.886L321.166 436.271L323.577 436.376L323.481 438.991ZM338.071 438.834L337.95 436.219C338.747 436.219 339.554 436.128 340.362 436.062L340.506 438.677L338.071 438.834ZM314.992 438.494L312.581 438.272L312.798 435.657L315.209 435.866L314.992 438.494ZM346.559 438.167L346.33 435.552L348.742 435.278L349.007 437.893L346.559 438.167ZM306.527 437.565C305.731 437.447 304.924 437.343 304.116 437.212L304.454 434.597L306.865 434.937L306.527 437.565ZM355.012 437.054L354.662 434.439C355.458 434.322 356.253 434.194 357.073 434.047L357.459 436.662C356.566 436.793 355.771 436.937 354.964 437.054H355.012ZM298.121 436.191L295.71 435.719L296.156 433.104L298.568 433.563L298.121 436.191ZM363.404 435.512L362.945 432.897L365.297 432.374L365.787 434.989L363.404 435.512ZM289.791 434.387C288.995 434.204 288.212 433.995 287.38 433.798L287.947 431.246C288.718 431.455 289.5 431.655 290.274 431.835L289.791 434.387ZM371.723 433.523L371.145 430.984L373.472 430.343L374.086 432.869L371.723 433.523ZM281.496 432.123L279.156 431.387L279.831 428.875L282.135 429.595L281.496 432.123ZM379.887 431.06L379.199 428.548L381.488 427.789L382.211 430.288L379.887 431.06ZM273.357 429.506C272.585 429.232 271.814 428.956 271.053 428.656L271.85 426.195C272.598 426.47 273.357 426.758 274.116 427.02L273.357 429.506ZM387.989 428.263L387.182 425.803L389.436 424.913L390.281 427.373L387.989 428.263ZM265.351 426.392L263.095 425.411L263.999 422.99L266.218 423.945L265.351 426.392ZM395.935 424.965L395.019 422.544L397.237 421.537L398.178 423.932C397.443 424.272 396.695 424.573 395.935 424.912V424.965ZM257.501 422.779L255.294 421.68L256.307 419.311L258.489 420.384L257.501 422.779ZM403.761 421.17L402.736 418.8L404.895 417.675L405.957 420.017L403.761 421.17ZM249.856 418.788L247.71 417.571L248.831 415.254L250.956 416.458L249.856 418.788ZM411.373 416.995L410.228 414.691C410.939 414.283 411.639 413.867 412.339 413.448L413.544 415.726L411.373 416.995ZM242.383 414.38C241.684 413.948 240.985 413.503 240.297 413.072L241.503 410.834L243.565 412.142L242.383 414.38ZM418.764 412.419L417.555 410.181L419.592 408.806L420.871 411.031L418.764 412.419ZM235.137 409.566L233.112 408.113L234.45 405.94L236.452 407.367L235.137 409.566ZM425.936 407.402L424.573 405.243C425.236 404.746 425.888 404.263 426.535 403.751L427.873 405.95L425.936 407.402ZM228.189 404.326L226.236 402.756L227.683 400.662L229.599 402.207L228.189 404.326ZM432.809 402.023L431.338 399.942C431.977 399.419 432.604 398.88 433.231 398.346L434.726 400.4C434.099 400.912 433.448 401.448 432.809 402.024L432.809 402.023ZM221.35 398.725L219.482 397.037L221.025 395.035L222.894 396.657L221.35 398.725ZM439.43 396.212L437.863 394.223C438.477 393.66 439.068 393.085 439.683 392.507L441.274 394.468C440.671 395.018 440.056 395.593 439.43 396.17L439.43 396.212ZM214.901 392.693C214.31 392.091 213.695 391.503 213.129 390.901L214.781 388.99L216.529 390.757L214.901 392.693ZM445.755 389.997L444.079 388.112C444.658 387.51 445.285 386.909 445.803 386.293L447.503 388.152C446.924 388.741 446.333 389.355 445.755 389.958V389.997ZM208.772 386.267L207.084 384.37L208.844 382.577C209.387 383.205 209.941 383.82 210.496 384.435L208.772 386.267ZM451.735 383.415L449.974 381.635C450.517 380.993 451.059 380.327 451.59 379.711L453.388 381.465C452.845 382.08 452.291 382.734 451.736 383.375L451.735 383.415ZM202.996 379.492L201.417 377.49L203.249 375.802C203.767 376.456 204.286 377.109 204.817 377.778L202.996 379.492ZM457.414 376.482L455.569 374.807L457.076 372.792L458.956 374.426C458.401 375.067 457.894 375.761 457.365 376.441L457.414 376.482ZM197.569 372.32C197.079 371.613 196.58 370.919 196.098 370.213L198.027 368.643L199.474 370.71L197.569 372.32ZM462.61 369.153L460.669 367.595C461.139 366.901 461.609 366.195 462.067 365.489L464.029 367.007L462.61 369.153ZM192.517 364.847L192.203 364.336L191.154 362.661L193.168 361.208C193.505 361.771 193.843 362.321 194.193 362.87L194.506 363.368L192.517 364.847ZM467.433 361.536L465.444 360.147C465.878 359.411 466.312 358.681 466.734 357.948L468.771 359.337C468.353 360.061 467.919 360.794 467.469 361.536H467.433ZM187.923 357.074L186.723 354.794L188.809 353.486C189.207 354.232 189.617 354.978 190.015 355.724L187.923 357.074ZM471.885 353.606L469.787 352.298L470.992 350.021L473.117 351.328C472.683 352.071 472.285 352.843 471.887 353.602L471.885 353.606ZM183.813 348.986C183.44 348.201 183.065 347.416 182.704 346.63L184.863 345.466L185.948 347.783L183.813 348.986ZM475.852 345.4L473.681 344.262C474.031 343.477 474.369 342.705 474.707 341.906L476.901 343.018L475.852 345.4ZM180.127 340.646C179.789 339.835 179.473 339.023 179.15 338.212L181.381 337.204C181.682 338.003 182.008 338.788 182.322 339.586L180.127 340.646ZM479.339 336.956L477.109 335.962C477.41 335.15 477.7 334.352 477.989 333.54L480.244 334.496L479.339 336.956ZM176.919 332.074C176.642 331.237 176.364 330.412 176.102 329.575L178.381 328.724C178.647 329.535 178.911 330.347 179.188 331.158L176.919 332.074ZM482.317 328.279L480.038 327.442C480.292 326.617 480.529 325.793 480.774 324.968L483.077 325.754C482.836 326.617 482.587 327.429 482.318 328.293L482.317 328.279ZM174.23 323.295C174.001 322.444 173.772 321.593 173.567 320.743L175.882 320.049C176.1 320.887 176.316 321.711 176.545 322.549L174.23 323.295ZM484.777 319.372L482.45 318.705C482.655 317.867 482.848 317.03 483.041 316.179L485.38 316.807C485.187 317.723 484.982 318.574 484.777 319.422V319.372ZM172.071 314.347C171.891 313.483 171.722 312.619 171.553 311.732L173.965 311.208L174.471 313.734L172.071 314.347ZM486.706 310.416L484.294 309.905C484.451 309.054 484.596 308.204 484.741 307.353L487.152 307.811C486.96 308.675 486.864 309.539 486.706 310.416ZM170.468 305.272C170.335 304.409 170.214 303.532 170.106 302.658L172.517 302.304C172.626 303.155 172.746 304.021 172.867 304.919L170.468 305.272ZM488.069 301.254L485.658 300.927L485.947 298.312L488.359 298.6L488.069 301.254ZM169.408 296.024C169.335 295.147 169.263 294.27 169.215 293.409L171.626 293.213C171.686 294.077 171.747 294.94 171.819 295.828L169.408 296.024ZM488.937 291.993L486.526 291.836C486.526 290.972 486.608 290.108 486.647 289.221L489.058 289.326C488.977 290.294 488.937 291.171 488.889 292.104L488.937 291.993ZM168.961 286.758V284.143H171.373V286.758H168.961ZM486.719 282.806V280.191H489.13V282.806H486.719ZM171.409 277.702L168.998 277.584C168.998 276.707 169.071 275.83 169.131 274.969L171.542 275.139C171.481 275.958 171.445 276.821 171.409 277.698V277.702ZM486.394 273.779C486.394 272.915 486.273 272.052 486.201 271.164L488.612 270.929C488.685 271.806 488.757 272.683 488.805 273.544L486.394 273.779ZM172.049 268.675L169.637 268.388C169.718 267.516 169.814 266.644 169.927 265.773L172.338 266.113C172.256 266.911 172.133 267.775 172.049 268.638V268.675ZM485.549 264.753C485.44 263.902 485.32 263.037 485.199 262.138L487.611 261.729C487.743 262.593 487.864 263.47 487.973 264.344L485.549 264.753ZM173.254 259.687L170.843 259.241C170.988 258.364 171.145 257.501 171.301 256.626L173.713 257.137C173.52 257.935 173.375 258.786 173.231 259.637L173.254 259.687ZM484.102 255.764C483.945 254.927 483.775 254.076 483.596 253.225L486.007 252.653C486.176 253.517 486.357 254.381 486.514 255.268L484.102 255.764ZM174.965 250.752L172.626 250.136C172.819 249.273 173.024 248.42 173.229 247.522L175.556 248.189L174.965 250.752ZM482.136 246.931C481.918 246.093 481.702 245.256 481.473 244.431L483.788 243.685C484.017 244.536 484.234 245.373 484.451 246.224L482.136 246.931ZM177.233 241.998L174.945 241.199C175.186 240.362 175.435 239.524 175.693 238.686L177.981 239.524C177.716 240.349 177.463 241.173 177.222 241.998H177.233ZM479.641 238.229V238.087C479.375 237.263 479.111 236.438 478.834 235.627L481.088 234.724C481.377 235.562 481.643 236.386 481.905 237.224L481.966 237.381L479.641 238.229ZM180.007 233.413L177.752 232.47L178.656 230.01L180.887 231.004C180.573 231.803 180.284 232.601 179.994 233.413H180.007ZM476.627 229.589C476.325 228.778 476 227.992 475.686 227.194L477.893 226.132C478.22 226.943 478.547 227.755 478.857 228.566L476.627 229.589ZM183.286 225.035L181.104 223.949C181.441 223.138 181.791 222.352 182.141 221.554L184.311 222.692C183.925 223.464 183.588 224.25 183.248 225.035H183.286ZM473.142 221.306C472.792 220.533 472.431 219.761 472.069 218.989L474.203 217.785C474.577 218.571 474.951 219.356 475.312 220.155L473.142 221.306ZM187.024 216.908L184.899 215.601L186.104 213.284L188.215 214.592L187.024 216.908ZM469.175 213.297C468.777 212.537 468.368 211.791 467.97 211.058L470.031 209.751C470.457 210.492 470.859 211.252 471.237 212.028L469.175 213.297ZM191.18 209.047L189.13 207.658L190.433 205.433L192.458 206.847C192.028 207.579 191.605 208.337 191.184 209.044L191.18 209.047ZM464.761 205.553C464.327 204.833 463.881 204.113 463.423 203.407L465.413 201.928C465.871 202.647 466.329 203.38 466.775 204.113L464.761 205.553ZM195.874 201.467L193.912 199.962C194.382 199.242 194.853 198.522 195.335 197.816L197.277 199.361C196.746 200.068 196.276 200.761 195.818 201.467H195.874ZM459.998 198.117L458.539 196.05L460.445 194.44L461.927 196.547L459.998 198.117ZM200.926 194.195L198.984 192.633C199.491 191.939 199.997 191.259 200.515 190.579L202.372 192.254C201.865 192.869 201.359 193.537 200.865 194.215L200.926 194.195ZM454.765 190.988C454.344 190.438 453.921 189.902 453.487 189.365L453.21 189.025L455.019 187.285L455.308 187.651C455.744 188.183 456.178 188.733 456.61 189.3L454.765 190.988ZM206.377 187.272L204.592 185.518C205.135 184.851 205.689 184.211 206.244 183.568L208.005 185.348C207.366 186.016 206.835 186.643 206.292 187.298L206.377 187.272ZM449.195 184.222L447.531 182.351L449.243 180.519L450.943 182.416L449.195 184.222ZM212.044 180.723L210.343 178.852L212.092 177.02L213.756 178.904L212.044 180.723ZM443.106 177.844C442.527 177.242 441.901 176.654 441.346 176.078L442.973 174.141L444.757 175.934L443.106 177.844ZM218.169 174.507L216.578 172.546L218.422 170.818L219.99 172.807L218.169 174.507ZM436.836 171.81L434.979 170.148L436.498 168.12L438.378 169.795L436.836 171.81ZM224.62 168.682L223.125 166.628L225.042 165.005L226.513 167.086L224.62 168.682ZM430.289 166.157L428.36 164.612L429.77 162.492C430.424 163.003 431.085 163.526 431.724 164.063L430.289 166.157ZM231.336 163.252L229.946 161.106L231.948 159.6L233.301 161.765C232.698 162.255 232.035 162.746 231.336 163.253V163.252ZM423.415 160.896C422.752 160.411 422.089 159.927 421.413 159.456L422.728 157.27L424.753 158.71L423.415 160.896ZM238.317 158.199L237.091 155.987L239.152 154.598L240.358 156.836L238.317 158.199ZM416.373 155.987L414.3 154.68L415.505 152.415L417.604 153.723L416.373 155.987ZM245.588 153.527L244.382 151.239L246.516 149.931L247.661 152.235C246.977 152.697 246.286 153.142 245.587 153.57L245.588 153.527ZM409.054 151.541L406.919 150.35L408.016 148.007L410.175 149.224L409.054 151.541ZM253.039 149.329L251.976 146.986L254.159 145.835L255.196 148.204L253.039 149.329ZM401.566 147.536L399.384 146.463L400.361 144.068C401.109 144.434 401.843 144.788 402.579 145.167L401.566 147.536ZM260.636 145.521L259.684 143.113L261.914 142.092L262.843 144.513L260.636 145.521ZM393.838 143.911L391.607 142.956L392.488 140.519L394.743 141.487L393.838 143.911ZM268.438 142.118L267.593 139.671C268.349 139.357 269.109 139.056 269.872 138.768L270.68 141.228L268.438 142.118ZM386.003 140.718L383.724 139.88L384.484 137.393L386.787 138.244L386.003 140.718ZM276.362 139.16L275.639 136.66L277.966 135.875L278.654 138.388C277.882 138.633 277.159 138.886 276.35 139.16H276.362ZM378.009 137.943L375.706 137.223L376.345 134.698L378.684 135.433L378.009 137.943ZM284.429 136.636L283.815 134.11L286.166 133.456L286.745 135.995L284.429 136.636ZM369.894 135.628C369.122 135.419 368.351 135.22 367.567 135.039L368.097 132.424C368.894 132.607 369.677 132.817 370.509 133.013L369.894 135.628ZM292.592 134.529L292.101 131.914L294.513 131.378L294.983 133.992L292.592 134.529ZM361.683 133.744L359.271 133.273L359.693 130.658L362.104 131.129L361.683 133.744ZM300.827 132.893L300.441 130.278L302.852 129.87L303.202 132.485L300.827 132.893ZM353.398 132.265L350.987 131.925L351.289 129.31L353.7 129.65L353.398 132.265ZM309.146 131.65L308.869 129.035C309.677 128.943 310.485 128.839 311.281 128.76L311.526 131.375C310.738 131.419 309.946 131.493 309.15 131.597L309.146 131.65ZM345.067 131.231L342.655 131.009L342.836 128.394L345.247 128.616L345.067 131.231ZM317.503 130.839L317.358 128.224L319.769 128.067L319.89 130.682L317.503 130.839ZM336.687 130.617L334.275 130.525L334.336 127.91L336.747 128.015L336.687 130.617ZM325.897 130.473V127.853H328.308V130.468L325.897 130.473Z" fill="#FFB70D"/>
<path d="M331.231 413.802V412.495H332.539V413.802H331.231ZM311.438 412.886L310.13 412.742L310.287 411.435L311.595 411.579L311.438 412.886ZM352.308 412.179L352.125 410.872L353.433 410.676L353.629 411.983L352.308 412.179ZM290.624 409.274L289.316 408.96L289.643 407.653L290.951 407.967L290.624 409.274ZM372.978 407.795L372.625 406.488L373.933 406.122L374.286 407.429L372.978 407.795ZM270.491 402.9L269.261 402.416L269.746 401.199L270.963 401.683L270.491 402.9ZM392.876 400.675L392.352 399.472L393.556 398.948L394.093 400.138L392.876 400.675ZM251.405 393.831L250.266 393.177L250.92 392.052L252.046 392.693L251.405 393.831ZM411.609 390.874L410.915 389.748L412.027 389.055L412.734 390.167L411.609 390.874ZM233.811 382.145L232.764 381.334L233.575 380.313L234.609 381.112L233.811 382.145ZM428.731 378.468L427.893 377.474L428.888 376.623L429.739 377.618L428.731 378.468ZM218.128 367.998L217.225 367.043L218.181 366.153L219.084 367.108L218.128 367.998ZM443.798 363.667L442.804 362.803L443.664 361.81L444.659 362.66L443.798 363.667ZM204.841 351.573L204.106 350.474L205.192 349.739L205.928 350.825L204.841 351.573ZM456.34 346.652L455.227 345.959L455.921 344.846L457.034 345.527L456.34 346.652ZM194.395 333.2L193.858 331.997L195.049 331.46C195.219 331.852 195.402 332.245 195.586 332.65L194.395 333.2ZM465.922 327.796L464.705 327.311L465.19 326.094L466.407 326.579L465.922 327.796ZM187.249 313.217L186.922 311.909L188.23 311.596L188.544 312.903L187.249 313.217ZM472.102 307.484L470.794 307.223C470.886 306.791 470.964 306.359 471.056 305.915L472.364 306.161C472.273 306.621 472.191 307.052 472.101 307.484H472.102ZM183.688 292.367C183.688 291.922 183.623 291.49 183.597 291.06L184.904 290.968L185.009 292.275L183.688 292.367ZM474.524 286.491H473.216V285.183H474.524C474.578 285.617 474.591 286.055 474.563 286.491H474.524ZM185.336 271.364L184.028 271.221L184.185 269.913L185.493 270.07C185.428 270.501 185.375 270.932 185.336 271.364ZM471.891 265.593C471.826 265.161 471.748 264.729 471.682 264.285L472.99 264.063C473.072 264.495 473.134 264.927 473.212 265.371L471.891 265.593ZM189.408 250.857L188.1 250.491L188.479 249.184L189.787 249.563L189.408 250.857ZM466.812 245.309V245.178C466.668 244.769 466.524 244.353 466.367 243.948L467.598 243.503C467.755 243.922 467.898 244.327 468.042 244.746V244.889L466.812 245.309ZM196.987 231.358L195.809 230.786L196.399 229.609L197.577 230.198L196.987 231.358ZM458.238 226.123L457.596 224.985L458.735 224.344C458.957 224.723 459.167 225.103 459.376 225.495L458.238 226.123ZM207.773 213.442L206.711 212.67L207.483 211.608L208.546 212.38L207.773 213.442ZM446.615 208.678L445.79 207.657L446.811 206.833L447.636 207.867L446.615 208.678ZM221.349 197.515L220.419 196.586L221.362 195.657L222.278 196.586L221.349 197.515ZM432.331 193.379L431.363 192.502L432.227 191.522L433.208 192.412L432.331 193.379ZM237.28 183.865L236.507 182.818L237.57 182.033L238.342 183.095L237.28 183.865ZM415.928 180.423L414.842 179.688L415.562 178.602L416.661 179.337L415.928 180.423ZM254.991 172.702L254.375 171.537L255.54 170.922L256.156 172.087L254.991 172.702ZM397.771 169.98L396.58 169.417L397.143 168.226L398.334 168.798L397.771 169.98ZM274.012 164.117L273.553 162.887L274.796 162.429L275.241 163.658L274.012 164.117ZM378.229 162.156L376.986 161.747L377.378 160.44L378.686 160.848L378.229 162.156ZM294.108 158.233L293.833 156.926L295.141 156.651L295.416 157.959L294.108 158.233ZM357.912 157.043L356.604 156.807L356.826 155.5L358.134 155.735L357.912 157.043ZM314.83 155.041L314.713 153.733L316.021 153.629L316.125 154.936L314.83 155.041ZM337.085 154.632H335.777V153.325H337.085V154.632Z" fill="#66C6FE"/>
<path d="M216.283 172.311C216.283 172.754 216.151 173.187 215.904 173.555C215.658 173.924 215.307 174.211 214.897 174.38C214.488 174.549 214.037 174.592 213.602 174.505C213.168 174.417 212.769 174.203 212.456 173.888C212.143 173.574 211.931 173.174 211.846 172.739C211.761 172.304 211.808 171.854 211.979 171.445C212.151 171.036 212.44 170.688 212.809 170.443C213.179 170.199 213.614 170.07 214.057 170.072C214.648 170.076 215.215 170.313 215.632 170.732C216.049 171.152 216.283 171.719 216.283 172.311Z" fill="#FF7700"/>
<path d="M209.801 178.473C209.801 178.916 209.669 179.349 209.423 179.717C209.177 180.085 208.828 180.372 208.419 180.541C208.01 180.711 207.559 180.755 207.125 180.669C206.691 180.582 206.292 180.369 205.979 180.056C205.666 179.743 205.452 179.344 205.366 178.91C205.28 178.476 205.324 178.026 205.493 177.617C205.663 177.208 205.95 176.858 206.318 176.613C206.686 176.367 207.119 176.235 207.562 176.235C208.156 176.235 208.725 176.471 209.145 176.891C209.565 177.311 209.801 177.88 209.801 178.473Z" fill="#FF7700"/>
<path d="M201.306 187.308C202.543 187.308 203.545 186.306 203.545 185.07C203.545 183.833 202.543 182.831 201.306 182.831C200.07 182.831 199.068 183.833 199.068 185.07C199.068 186.306 200.07 187.308 201.306 187.308Z" fill="#FF7700"/>
<path d="M192.5 199.177C192.5 199.62 192.369 200.052 192.123 200.42C191.877 200.789 191.528 201.075 191.118 201.245C190.709 201.414 190.259 201.459 189.825 201.372C189.391 201.286 188.992 201.073 188.679 200.76C188.365 200.447 188.152 200.048 188.066 199.614C187.979 199.179 188.024 198.729 188.193 198.32C188.363 197.911 188.65 197.562 189.018 197.316C189.386 197.07 189.819 196.939 190.262 196.939C190.855 196.939 191.425 197.175 191.845 197.594C192.265 198.014 192.5 198.583 192.5 199.177Z" fill="#FF7700"/>
<path d="M187.475 206.82C187.478 207.263 187.349 207.697 187.104 208.067C186.86 208.437 186.511 208.725 186.102 208.897C185.693 209.068 185.243 209.115 184.808 209.03C184.373 208.945 183.972 208.733 183.658 208.42C183.344 208.108 183.129 207.709 183.042 207.274C182.954 206.84 182.998 206.389 183.167 205.979C183.336 205.57 183.623 205.219 183.991 204.973C184.36 204.726 184.793 204.595 185.236 204.595C185.828 204.595 186.395 204.829 186.815 205.246C187.234 205.663 187.472 206.228 187.475 206.82Z" fill="#FF7700"/>
<path d="M183.03 214.541C183.024 215.061 182.839 215.562 182.505 215.961C182.171 216.359 181.709 216.63 181.199 216.727C180.688 216.824 180.159 216.741 179.703 216.493C179.246 216.245 178.889 215.846 178.693 215.365C178.497 214.884 178.473 214.349 178.626 213.853C178.779 213.356 179.099 212.927 179.533 212.64C179.966 212.352 180.485 212.224 181.002 212.275C181.519 212.327 182.003 212.556 182.371 212.923C182.583 213.135 182.751 213.387 182.865 213.665C182.978 213.943 183.034 214.241 183.03 214.541Z" fill="#FF7700"/>
<path d="M197.865 191.979C197.865 192.423 197.733 192.856 197.487 193.224C197.24 193.593 196.89 193.879 196.48 194.049C196.07 194.218 195.619 194.261 195.185 194.174C194.75 194.086 194.351 193.872 194.038 193.557C193.726 193.243 193.514 192.843 193.429 192.408C193.344 191.973 193.39 191.523 193.562 191.114C193.733 190.705 194.022 190.356 194.392 190.112C194.762 189.868 195.196 189.739 195.639 189.741C196.231 189.745 196.797 189.982 197.214 190.401C197.631 190.821 197.865 191.388 197.865 191.979Z" fill="#FF7700"/>
<path d="M452.211 388.938C452.211 389.38 452.08 389.813 451.834 390.181C451.588 390.549 451.238 390.836 450.829 391.006C450.42 391.175 449.97 391.219 449.535 391.133C449.101 391.047 448.702 390.833 448.389 390.52C448.076 390.207 447.863 389.809 447.776 389.374C447.69 388.94 447.734 388.49 447.904 388.081C448.073 387.672 448.36 387.323 448.728 387.077C449.097 386.831 449.529 386.7 449.972 386.7C450.566 386.7 451.135 386.935 451.555 387.355C451.975 387.775 452.211 388.344 452.211 388.938Z" fill="#E04D01"/>
<path d="M456.079 384.58C457.315 384.58 458.318 383.578 458.318 382.342C458.318 381.106 457.315 380.103 456.079 380.103C454.842 380.103 453.84 381.106 453.84 382.342C453.84 383.578 454.842 384.58 456.079 384.58Z" fill="#E04D01"/>
<path d="M445.605 395.049C445.615 395.492 445.494 395.928 445.256 396.302C445.018 396.676 444.675 396.971 444.269 397.149C443.863 397.328 443.414 397.382 442.977 397.305C442.541 397.228 442.137 397.023 441.817 396.717C441.497 396.41 441.276 396.015 441.18 395.583C441.085 395.15 441.12 394.699 441.282 394.286C441.443 393.873 441.723 393.518 442.087 393.265C442.451 393.011 442.881 392.872 443.324 392.863C443.916 392.853 444.488 393.077 444.915 393.486C445.341 393.896 445.589 394.458 445.603 395.049H445.605Z" fill="#E04D01"/>
<path d="M330.456 350.632C330.456 351.311 330.254 351.974 329.877 352.539C329.5 353.103 328.964 353.543 328.336 353.803C327.709 354.062 327.019 354.13 326.353 353.998C325.687 353.866 325.075 353.539 324.595 353.059C324.115 352.579 323.788 351.967 323.656 351.301C323.523 350.636 323.591 349.946 323.851 349.319C324.111 348.691 324.551 348.155 325.115 347.778C325.68 347.401 326.344 347.2 327.023 347.2C327.933 347.2 328.806 347.561 329.45 348.205C330.094 348.849 330.456 349.722 330.456 350.632Z" fill="#A7F4FE"/>
<path opacity="0.8" d="M327.028 361.874C328.466 361.874 329.633 360.708 329.633 359.269C329.633 357.831 328.466 356.665 327.028 356.665C325.589 356.665 324.423 357.831 324.423 359.269C324.423 360.708 325.589 361.874 327.028 361.874Z" fill="#A7F4FE"/>
<path opacity="0.5" d="M329.083 366.139C329.083 366.545 328.962 366.943 328.736 367.28C328.51 367.618 328.189 367.882 327.814 368.037C327.438 368.193 327.025 368.233 326.627 368.154C326.228 368.075 325.862 367.879 325.575 367.592C325.287 367.304 325.091 366.938 325.012 366.54C324.933 366.141 324.974 365.728 325.129 365.353C325.285 364.978 325.548 364.657 325.886 364.431C326.224 364.205 326.621 364.085 327.028 364.085C327.297 364.085 327.565 364.138 327.814 364.241C328.063 364.344 328.29 364.496 328.481 364.686C328.671 364.877 328.823 365.104 328.926 365.353C329.029 365.602 329.083 365.869 329.083 366.139Z" fill="#A7F4FE"/>
<path opacity="0.4" d="M328.48 371.675C328.48 371.963 328.395 372.244 328.235 372.483C328.075 372.722 327.848 372.908 327.582 373.018C327.317 373.128 327.024 373.156 326.742 373.1C326.46 373.044 326.201 372.905 325.998 372.702C325.795 372.498 325.657 372.239 325.601 371.957C325.545 371.675 325.574 371.383 325.685 371.118C325.795 370.852 325.982 370.625 326.221 370.466C326.46 370.307 326.742 370.222 327.029 370.222C327.415 370.222 327.784 370.375 328.057 370.648C328.329 370.92 328.483 371.29 328.483 371.675H328.48Z" fill="#A7F4FE"/>
<path opacity="0.2" d="M327.982 376.177C327.982 376.366 327.926 376.551 327.821 376.708C327.716 376.865 327.567 376.987 327.392 377.06C327.218 377.132 327.026 377.151 326.84 377.114C326.655 377.077 326.485 376.986 326.351 376.852C326.218 376.719 326.127 376.549 326.09 376.363C326.053 376.178 326.072 375.986 326.144 375.811C326.216 375.637 326.339 375.488 326.496 375.383C326.653 375.278 326.838 375.222 327.027 375.222C327.28 375.222 327.523 375.322 327.702 375.502C327.882 375.681 327.982 375.924 327.982 376.177Z" fill="#A7F4FE"/>
<path d="M229.06 255.084C228.381 255.084 227.717 254.883 227.153 254.506C226.588 254.129 226.148 253.593 225.888 252.966C225.628 252.339 225.56 251.648 225.693 250.983C225.825 250.317 226.152 249.705 226.632 249.225C227.113 248.745 227.724 248.419 228.39 248.286C229.056 248.154 229.746 248.222 230.374 248.481C231.001 248.741 231.537 249.181 231.914 249.746C232.292 250.31 232.493 250.973 232.493 251.652C232.493 252.562 232.131 253.435 231.488 254.079C230.844 254.723 229.971 255.084 229.06 255.084Z" fill="#A7F4FE"/>
<path opacity="0.8" d="M220.759 254.26C222.197 254.26 223.364 253.094 223.364 251.656C223.364 250.217 222.197 249.051 220.759 249.051C219.32 249.051 218.154 250.217 218.154 251.656C218.154 253.094 219.32 254.26 220.759 254.26Z" fill="#A7F4FE"/>
<path opacity="0.5" d="M214.143 253.71C215.277 253.71 216.197 252.79 216.197 251.656C216.197 250.521 215.277 249.601 214.143 249.601C213.008 249.601 212.088 250.521 212.088 251.656C212.088 252.79 213.008 253.71 214.143 253.71Z" fill="#A7F4FE"/>
<path opacity="0.4" d="M208.832 253.108C209.635 253.108 210.285 252.458 210.285 251.656C210.285 250.853 209.635 250.203 208.832 250.203C208.029 250.203 207.379 250.853 207.379 251.656C207.379 252.458 208.029 253.108 208.832 253.108Z" fill="#A7F4FE"/>
<path opacity="0.2" d="M204.502 252.611C205.03 252.611 205.458 252.183 205.458 251.655C205.458 251.128 205.03 250.7 204.502 250.7C203.975 250.7 203.547 251.128 203.547 251.655C203.547 252.183 203.975 252.611 204.502 252.611Z" fill="#A7F4FE"/>
<path d="M429.241 248.227C429.92 248.227 430.583 248.428 431.148 248.805C431.713 249.182 432.153 249.718 432.412 250.345C432.672 250.973 432.74 251.663 432.608 252.328C432.475 252.994 432.148 253.606 431.668 254.086C431.188 254.566 430.576 254.892 429.91 255.025C429.244 255.157 428.554 255.089 427.927 254.83C427.3 254.57 426.763 254.13 426.386 253.566C426.009 253.001 425.808 252.338 425.808 251.659C425.808 250.749 426.169 249.876 426.813 249.232C427.457 248.588 428.33 248.227 429.241 248.227Z" fill="#A7F4FE"/>
<path opacity="0.8" d="M437.543 254.26C438.982 254.26 440.148 253.094 440.148 251.656C440.148 250.217 438.982 249.051 437.543 249.051C436.104 249.051 434.938 250.217 434.938 251.656C434.938 253.094 436.104 254.26 437.543 254.26Z" fill="#A7F4FE"/>
<path opacity="0.5" d="M444.146 253.71C445.281 253.71 446.201 252.79 446.201 251.656C446.201 250.521 445.281 249.601 444.146 249.601C443.011 249.601 442.091 250.521 442.091 251.656C442.091 252.79 443.011 253.71 444.146 253.71Z" fill="#A7F4FE"/>
<path opacity="0.4" d="M449.47 253.108C450.273 253.108 450.924 252.458 450.924 251.656C450.924 250.853 450.273 250.203 449.47 250.203C448.668 250.203 448.017 250.853 448.017 251.656C448.017 252.458 448.668 253.108 449.47 253.108Z" fill="#A7F4FE"/>
<path opacity="0.2" d="M453.799 252.611C454.327 252.611 454.755 252.183 454.755 251.655C454.755 251.128 454.327 250.7 453.799 250.7C453.272 250.7 452.844 251.128 452.844 251.655C452.844 252.183 453.272 252.611 453.799 252.611Z" fill="#A7F4FE"/>
<path d="M529.724 314.473C529.307 314.473 528.899 314.349 528.553 314.118C528.206 313.886 527.936 313.557 527.777 313.172C527.617 312.787 527.576 312.364 527.657 311.955C527.738 311.547 527.939 311.171 528.234 310.877C528.528 310.582 528.904 310.381 529.312 310.3C529.721 310.219 530.145 310.26 530.53 310.42C530.915 310.579 531.244 310.849 531.476 311.196C531.707 311.542 531.831 311.949 531.831 312.366C531.831 312.925 531.609 313.461 531.214 313.856C530.818 314.251 530.282 314.473 529.724 314.473ZM529.724 311.279C529.509 311.279 529.299 311.343 529.12 311.462C528.941 311.582 528.802 311.751 528.72 311.95C528.638 312.148 528.616 312.367 528.658 312.577C528.7 312.788 528.804 312.981 528.955 313.133C529.107 313.285 529.301 313.389 529.512 313.43C529.722 313.472 529.941 313.451 530.139 313.369C530.338 313.286 530.507 313.147 530.627 312.969C530.746 312.79 530.81 312.58 530.81 312.365C530.81 312.077 530.695 311.801 530.492 311.597C530.288 311.394 530.012 311.279 529.724 311.279Z" fill="#FFB70D"/>
<path d="M569.821 320.689C569.404 320.689 568.996 320.565 568.65 320.334C568.303 320.102 568.033 319.773 567.874 319.388C567.714 319.003 567.673 318.58 567.754 318.171C567.835 317.763 568.036 317.387 568.331 317.093C568.625 316.798 569.001 316.597 569.41 316.516C569.818 316.435 570.242 316.477 570.627 316.636C571.012 316.795 571.341 317.065 571.573 317.412C571.804 317.758 571.928 318.166 571.928 318.582C571.928 319.141 571.706 319.677 571.311 320.072C570.915 320.467 570.379 320.689 569.821 320.689ZM569.821 317.509C569.586 317.534 569.367 317.636 569.195 317.797C569.024 317.959 568.909 318.172 568.869 318.404C568.829 318.636 568.866 318.875 568.974 319.085C569.082 319.294 569.255 319.463 569.467 319.566C569.679 319.668 569.919 319.699 570.15 319.653C570.382 319.608 570.592 319.488 570.749 319.313C570.906 319.137 571.002 318.915 571.022 318.68C571.042 318.446 570.986 318.211 570.86 318.011C570.752 317.838 570.597 317.699 570.413 317.61C570.229 317.521 570.024 317.486 569.821 317.509Z" fill="#FFB70D"/>
<path d="M529.201 326.918C528.783 326.923 528.373 326.804 528.023 326.576C527.673 326.347 527.399 326.02 527.236 325.636C527.072 325.251 527.027 324.827 527.105 324.417C527.183 324.006 527.382 323.629 527.676 323.331C527.969 323.034 528.345 322.831 528.754 322.747C529.164 322.664 529.589 322.704 529.975 322.863C530.362 323.021 530.692 323.291 530.925 323.638C531.158 323.985 531.282 324.394 531.282 324.811C531.282 325.366 531.064 325.898 530.674 326.292C530.285 326.686 529.755 326.911 529.201 326.918ZM529.201 323.725C528.986 323.725 528.776 323.788 528.598 323.908C528.419 324.027 528.28 324.197 528.198 324.395C528.115 324.593 528.094 324.812 528.136 325.022C528.178 325.233 528.281 325.427 528.433 325.578C528.585 325.73 528.778 325.834 528.989 325.876C529.2 325.918 529.418 325.896 529.617 325.814C529.815 325.732 529.985 325.593 530.104 325.414C530.224 325.235 530.287 325.025 530.287 324.811C530.287 324.668 530.259 324.527 530.205 324.395C530.15 324.263 530.07 324.144 529.969 324.043C529.868 323.942 529.749 323.862 529.617 323.807C529.485 323.753 529.344 323.725 529.201 323.725Z" fill="#FFB70D"/>
<path d="M495.453 343.186C496.689 343.186 497.692 342.184 497.692 340.948C497.692 339.712 496.689 338.71 495.453 338.71C494.216 338.71 493.214 339.712 493.214 340.948C493.214 342.184 494.216 343.186 495.453 343.186Z" fill="#FFB70D"/>
<path d="M525.234 308.727C525.236 308.927 525.179 309.123 525.07 309.291C524.961 309.458 524.804 309.589 524.62 309.667C524.437 309.746 524.234 309.768 524.037 309.73C523.841 309.693 523.66 309.598 523.518 309.457C523.375 309.317 523.278 309.138 523.238 308.942C523.198 308.746 523.217 308.543 523.293 308.358C523.369 308.173 523.498 308.015 523.664 307.904C523.83 307.792 524.026 307.733 524.226 307.733C524.491 307.733 524.745 307.837 524.934 308.023C525.122 308.209 525.23 308.462 525.234 308.727Z" fill="#A0F2FE"/>
<path opacity="0.8" d="M527.056 308.727C527.059 308.927 527.002 309.123 526.893 309.291C526.784 309.458 526.627 309.589 526.443 309.667C526.259 309.746 526.056 309.768 525.86 309.73C525.664 309.693 525.483 309.598 525.341 309.458C525.198 309.317 525.101 309.138 525.061 308.942C525.021 308.746 525.04 308.543 525.116 308.358C525.192 308.173 525.321 308.015 525.487 307.904C525.653 307.792 525.849 307.733 526.048 307.733C526.18 307.731 526.311 307.756 526.433 307.805C526.555 307.854 526.667 307.927 526.76 308.019C526.854 308.112 526.928 308.222 526.979 308.344C527.03 308.465 527.056 308.596 527.056 308.727Z" fill="#A0F2FE"/>
<path opacity="0.6" d="M523.55 308.727C523.566 308.928 523.521 309.128 523.422 309.302C523.322 309.477 523.173 309.618 522.993 309.707C522.813 309.796 522.611 309.829 522.412 309.803C522.213 309.776 522.026 309.691 521.876 309.557C521.726 309.424 521.619 309.249 521.569 309.054C521.519 308.86 521.529 308.655 521.596 308.466C521.664 308.277 521.786 308.112 521.948 307.993C522.109 307.874 522.303 307.806 522.503 307.797C522.765 307.783 523.022 307.873 523.218 308.047C523.414 308.221 523.534 308.465 523.55 308.727V308.727Z" fill="#A0F2FE"/>
<path opacity="0.4" d="M520.033 308.727C520.035 308.927 519.978 309.123 519.869 309.291C519.76 309.458 519.603 309.589 519.42 309.667C519.236 309.746 519.033 309.768 518.836 309.73C518.64 309.693 518.459 309.598 518.317 309.457C518.175 309.317 518.077 309.138 518.037 308.942C517.997 308.746 518.017 308.543 518.092 308.358C518.168 308.173 518.297 308.015 518.463 307.904C518.629 307.792 518.825 307.733 519.025 307.733C519.29 307.733 519.544 307.837 519.733 308.023C519.921 308.209 520.029 308.462 520.033 308.727Z" fill="#A0F2FE"/>
<path opacity="0.2" d="M516.552 308.727C516.555 308.928 516.497 309.124 516.388 309.292C516.278 309.46 516.121 309.591 515.936 309.669C515.751 309.747 515.548 309.768 515.351 309.729C515.154 309.691 514.973 309.594 514.832 309.453C514.69 309.311 514.594 309.13 514.555 308.934C514.517 308.737 514.538 308.533 514.616 308.349C514.694 308.164 514.825 308.007 514.992 307.897C515.16 307.788 515.357 307.73 515.557 307.733C515.821 307.733 516.074 307.838 516.261 308.024C516.447 308.211 516.552 308.464 516.552 308.727Z" fill="#A0F2FE"/>
<path d="M525.234 328.436C525.236 328.636 525.179 328.832 525.07 329C524.961 329.167 524.804 329.298 524.62 329.376C524.437 329.455 524.234 329.477 524.037 329.439C523.841 329.402 523.66 329.307 523.518 329.166C523.375 329.026 523.278 328.847 523.238 328.651C523.198 328.455 523.217 328.252 523.293 328.067C523.369 327.882 523.498 327.724 523.664 327.613C523.83 327.501 524.026 327.442 524.226 327.442C524.491 327.442 524.745 327.546 524.934 327.732C525.122 327.918 525.23 328.171 525.234 328.436Z" fill="#A0F2FE"/>
<path opacity="0.8" d="M527.056 328.436C527.059 328.636 527.002 328.832 526.893 329C526.784 329.167 526.627 329.298 526.443 329.376C526.259 329.455 526.056 329.477 525.86 329.439C525.664 329.402 525.483 329.307 525.341 329.166C525.198 329.026 525.101 328.847 525.061 328.651C525.021 328.455 525.04 328.252 525.116 328.067C525.192 327.882 525.321 327.724 525.487 327.613C525.653 327.501 525.849 327.442 526.048 327.442C526.18 327.44 526.311 327.465 526.433 327.514C526.555 327.563 526.667 327.636 526.76 327.728C526.854 327.821 526.928 327.931 526.979 328.053C527.03 328.174 527.056 328.305 527.056 328.436Z" fill="#A0F2FE"/>
<path opacity="0.6" d="M523.55 328.436C523.55 328.634 523.492 328.827 523.383 328.992C523.273 329.156 523.118 329.285 522.936 329.362C522.754 329.439 522.554 329.461 522.36 329.426C522.165 329.39 521.986 329.297 521.843 329.16C521.701 329.023 521.602 328.847 521.559 328.655C521.516 328.462 521.53 328.261 521.601 328.076C521.671 327.892 521.794 327.732 521.955 327.616C522.115 327.501 522.306 327.436 522.503 327.428C522.639 327.421 522.776 327.442 522.903 327.489C523.031 327.537 523.147 327.61 523.246 327.705C523.344 327.799 523.422 327.913 523.474 328.038C523.526 328.164 523.552 328.299 523.55 328.436V328.436Z" fill="#A0F2FE"/>
<path opacity="0.4" d="M520.033 328.436C520.035 328.636 519.978 328.832 519.869 329C519.76 329.167 519.603 329.298 519.42 329.376C519.236 329.455 519.033 329.477 518.836 329.439C518.64 329.402 518.459 329.307 518.317 329.166C518.175 329.026 518.077 328.847 518.037 328.651C517.997 328.455 518.017 328.252 518.092 328.067C518.168 327.882 518.297 327.724 518.463 327.613C518.629 327.501 518.825 327.442 519.025 327.442C519.29 327.442 519.544 327.546 519.733 327.732C519.921 327.918 520.029 328.171 520.033 328.436Z" fill="#A0F2FE"/>
<path opacity="0.2" d="M516.552 328.436C516.555 328.637 516.497 328.833 516.388 329.001C516.278 329.169 516.121 329.3 515.936 329.378C515.751 329.456 515.548 329.477 515.351 329.438C515.154 329.4 514.973 329.303 514.832 329.162C514.69 329.02 514.594 328.839 514.555 328.643C514.517 328.446 514.538 328.242 514.616 328.058C514.694 327.873 514.825 327.716 514.992 327.606C515.16 327.496 515.357 327.439 515.557 327.442C515.688 327.442 515.817 327.468 515.938 327.518C516.059 327.568 516.168 327.641 516.261 327.733C516.353 327.825 516.426 327.935 516.476 328.056C516.526 328.176 516.552 328.306 516.552 328.436Z" fill="#A0F2FE"/>
<path d="M133.263 308.727C133.26 308.928 133.317 309.124 133.427 309.292C133.537 309.46 133.694 309.591 133.879 309.669C134.063 309.747 134.267 309.768 134.464 309.729C134.66 309.691 134.841 309.594 134.983 309.453C135.125 309.311 135.221 309.13 135.259 308.934C135.298 308.737 135.277 308.533 135.199 308.349C135.121 308.164 134.99 308.007 134.822 307.897C134.654 307.788 134.458 307.73 134.257 307.733C133.993 307.733 133.74 307.838 133.554 308.024C133.367 308.211 133.263 308.464 133.263 308.727Z" fill="#A0F2FE"/>
<path opacity="0.8" d="M131.395 308.727C131.392 308.927 131.449 309.123 131.558 309.291C131.668 309.458 131.824 309.59 132.008 309.668C132.192 309.746 132.396 309.768 132.592 309.73C132.788 309.692 132.969 309.597 133.111 309.457C133.254 309.316 133.351 309.136 133.39 308.94C133.43 308.744 133.41 308.541 133.334 308.356C133.258 308.171 133.128 308.013 132.962 307.902C132.796 307.791 132.6 307.732 132.4 307.733C132.268 307.731 132.138 307.756 132.015 307.805C131.893 307.854 131.782 307.927 131.688 308.019C131.595 308.112 131.52 308.222 131.469 308.344C131.418 308.465 131.392 308.596 131.392 308.727H131.395Z" fill="#A0F2FE"/>
<path opacity="0.6" d="M134.901 308.727C134.898 308.928 134.955 309.124 135.065 309.292C135.175 309.46 135.332 309.591 135.517 309.669C135.701 309.747 135.905 309.768 136.102 309.729C136.299 309.691 136.479 309.594 136.621 309.453C136.763 309.311 136.859 309.13 136.897 308.934C136.936 308.737 136.915 308.533 136.837 308.349C136.759 308.164 136.628 308.007 136.46 307.897C136.292 307.788 136.096 307.73 135.895 307.733C135.632 307.733 135.379 307.838 135.192 308.024C135.005 308.211 134.901 308.464 134.901 308.727Z" fill="#A0F2FE"/>
<path opacity="0.4" d="M138.394 308.727C138.392 308.927 138.448 309.123 138.558 309.291C138.667 309.458 138.823 309.589 139.007 309.667C139.191 309.746 139.394 309.768 139.59 309.73C139.787 309.693 139.968 309.598 140.11 309.457C140.252 309.317 140.349 309.138 140.389 308.942C140.429 308.746 140.41 308.543 140.334 308.358C140.258 308.173 140.129 308.015 139.963 307.904C139.797 307.792 139.602 307.733 139.402 307.733C139.137 307.733 138.883 307.837 138.694 308.023C138.505 308.209 138.398 308.462 138.394 308.727Z" fill="#A0F2FE"/>
<path opacity="0.2" d="M141.9 308.727C141.897 308.927 141.954 309.123 142.063 309.291C142.173 309.458 142.329 309.589 142.513 309.667C142.697 309.746 142.9 309.768 143.096 309.73C143.293 309.693 143.473 309.598 143.616 309.458C143.758 309.317 143.855 309.138 143.895 308.942C143.935 308.746 143.916 308.543 143.84 308.358C143.764 308.173 143.635 308.015 143.469 307.904C143.303 307.792 143.108 307.733 142.908 307.733C142.776 307.731 142.645 307.756 142.523 307.805C142.401 307.854 142.29 307.927 142.196 308.019C142.102 308.112 142.028 308.222 141.977 308.344C141.926 308.465 141.9 308.596 141.9 308.727Z" fill="#A0F2FE"/>
<path d="M133.263 328.436C133.26 328.637 133.317 328.833 133.427 329.001C133.537 329.169 133.694 329.3 133.879 329.378C134.063 329.456 134.267 329.477 134.464 329.438C134.66 329.4 134.841 329.303 134.983 329.162C135.125 329.02 135.221 328.839 135.259 328.643C135.298 328.446 135.277 328.242 135.199 328.058C135.121 327.873 134.99 327.716 134.822 327.606C134.654 327.496 134.458 327.439 134.257 327.442C134.127 327.442 133.997 327.468 133.877 327.518C133.756 327.568 133.646 327.641 133.554 327.733C133.462 327.825 133.388 327.935 133.338 328.056C133.288 328.176 133.263 328.306 133.263 328.436Z" fill="#A0F2FE"/>
<path opacity="0.8" d="M131.395 328.436C131.392 328.636 131.449 328.832 131.558 329C131.668 329.167 131.824 329.298 132.008 329.377C132.192 329.455 132.396 329.477 132.592 329.439C132.788 329.401 132.969 329.306 133.111 329.166C133.254 329.025 133.351 328.845 133.39 328.649C133.43 328.453 133.41 328.25 133.334 328.065C133.258 327.88 133.128 327.722 132.962 327.611C132.796 327.5 132.6 327.441 132.4 327.442C132.268 327.44 132.138 327.465 132.015 327.514C131.893 327.563 131.782 327.636 131.688 327.728C131.595 327.821 131.52 327.931 131.469 328.053C131.418 328.174 131.392 328.305 131.392 328.436H131.395Z" fill="#A0F2FE"/>
<path opacity="0.6" d="M134.901 328.436C134.898 328.637 134.955 328.833 135.065 329.001C135.175 329.169 135.332 329.3 135.517 329.378C135.701 329.456 135.905 329.477 136.102 329.438C136.299 329.4 136.479 329.303 136.621 329.162C136.763 329.02 136.859 328.839 136.897 328.643C136.936 328.446 136.915 328.242 136.837 328.058C136.759 327.873 136.628 327.716 136.46 327.606C136.292 327.496 136.096 327.439 135.895 327.442C135.765 327.442 135.635 327.468 135.515 327.518C135.394 327.568 135.284 327.641 135.192 327.733C135.1 327.825 135.026 327.935 134.976 328.056C134.926 328.176 134.901 328.306 134.901 328.436Z" fill="#A0F2FE"/>
<path opacity="0.4" d="M138.394 328.436C138.392 328.636 138.448 328.832 138.558 329C138.667 329.167 138.823 329.298 139.007 329.376C139.191 329.455 139.394 329.477 139.59 329.439C139.787 329.402 139.968 329.307 140.11 329.166C140.252 329.026 140.349 328.847 140.389 328.651C140.429 328.455 140.41 328.252 140.334 328.067C140.258 327.882 140.129 327.724 139.963 327.613C139.797 327.501 139.602 327.442 139.402 327.442C139.137 327.442 138.883 327.546 138.694 327.732C138.505 327.918 138.398 328.171 138.394 328.436Z" fill="#A0F2FE"/>
<path opacity="0.2" d="M141.9 328.436C141.897 328.636 141.954 328.832 142.063 329C142.173 329.167 142.329 329.298 142.513 329.376C142.697 329.455 142.9 329.477 143.096 329.439C143.293 329.402 143.473 329.307 143.616 329.166C143.758 329.026 143.855 328.847 143.895 328.651C143.935 328.455 143.916 328.252 143.84 328.067C143.764 327.882 143.635 327.724 143.469 327.613C143.303 327.501 143.108 327.442 142.908 327.442C142.776 327.44 142.645 327.465 142.523 327.514C142.401 327.563 142.29 327.636 142.196 327.728C142.102 327.821 142.028 327.931 141.977 328.053C141.926 328.174 141.9 328.305 141.9 328.436Z" fill="#A0F2FE"/>
<path d="M128.853 314.473C128.436 314.473 128.029 314.349 127.682 314.118C127.335 313.886 127.065 313.557 126.906 313.172C126.746 312.787 126.705 312.364 126.786 311.955C126.867 311.547 127.068 311.171 127.363 310.877C127.657 310.582 128.033 310.381 128.442 310.3C128.85 310.219 129.274 310.26 129.659 310.42C130.044 310.579 130.373 310.849 130.605 311.196C130.836 311.542 130.96 311.949 130.96 312.366C130.96 312.925 130.738 313.46 130.343 313.856C129.947 314.251 129.412 314.473 128.853 314.473ZM128.853 311.279C128.637 311.277 128.426 311.338 128.246 311.456C128.065 311.574 127.924 311.742 127.84 311.941C127.756 312.139 127.732 312.358 127.773 312.569C127.813 312.781 127.915 312.975 128.067 313.129C128.218 313.282 128.412 313.386 128.623 313.429C128.834 313.472 129.053 313.452 129.252 313.37C129.452 313.288 129.622 313.149 129.742 312.97C129.862 312.791 129.926 312.581 129.926 312.365C129.926 312.08 129.813 311.805 129.612 311.602C129.412 311.399 129.139 311.283 128.853 311.279Z" fill="#FFB70D"/>
<path d="M128.853 326.918C128.436 326.918 128.029 326.794 127.682 326.563C127.335 326.332 127.065 326.003 126.906 325.618C126.746 325.233 126.705 324.809 126.786 324.4C126.867 323.992 127.068 323.616 127.363 323.322C127.657 323.027 128.033 322.827 128.442 322.745C128.85 322.664 129.274 322.706 129.659 322.865C130.044 323.025 130.373 323.295 130.605 323.641C130.836 323.987 130.96 324.395 130.96 324.811C130.96 325.088 130.905 325.362 130.8 325.618C130.694 325.873 130.538 326.105 130.343 326.301C130.147 326.497 129.915 326.652 129.659 326.758C129.403 326.864 129.129 326.918 128.853 326.918ZM128.853 323.725C128.638 323.725 128.428 323.788 128.249 323.908C128.071 324.027 127.931 324.197 127.849 324.395C127.767 324.593 127.745 324.812 127.787 325.022C127.829 325.233 127.933 325.427 128.085 325.579C128.237 325.73 128.43 325.834 128.641 325.876C128.852 325.918 129.07 325.896 129.268 325.814C129.467 325.732 129.637 325.593 129.756 325.414C129.875 325.235 129.939 325.025 129.939 324.811C129.939 324.668 129.911 324.527 129.856 324.395C129.802 324.263 129.722 324.144 129.621 324.043C129.52 323.942 129.4 323.862 129.268 323.807C129.137 323.753 128.995 323.725 128.853 323.725Z" fill="#FFB70D"/>
<path d="M88.597 320.689C88.1802 320.689 87.7728 320.565 87.4263 320.334C87.0797 320.102 86.8096 319.773 86.6502 319.388C86.4907 319.003 86.4489 318.58 86.5302 318.171C86.6115 317.763 86.8122 317.387 87.1069 317.093C87.4016 316.798 87.7771 316.597 88.1859 316.516C88.5946 316.435 89.0183 316.477 89.4034 316.636C89.7884 316.795 90.1175 317.065 90.3491 317.412C90.5806 317.758 90.7042 318.166 90.7042 318.582C90.7042 319.141 90.4822 319.677 90.087 320.072C89.6918 320.467 89.1559 320.689 88.597 320.689ZM88.597 317.509C88.381 317.506 88.1692 317.568 87.9886 317.686C87.808 317.804 87.6667 317.974 87.5829 318.173C87.499 318.372 87.4764 318.591 87.5179 318.803C87.5594 319.015 87.6631 319.21 87.8158 319.362C87.9685 319.515 88.1633 319.619 88.3752 319.66C88.5872 319.702 88.8067 319.679 89.0057 319.595C89.2047 319.511 89.3742 319.37 89.4926 319.19C89.611 319.009 89.6728 318.797 89.6702 318.581C89.6668 318.298 89.5527 318.027 89.3521 317.827C89.1516 317.626 88.8806 317.512 88.597 317.509Z" fill="#FFB70D"/>
<path d="M316.95 281.912V279.963H313.873V281.912H316.95Z" fill="#FF7700"/>
<path d="M322.252 281.912V279.963H319.175V281.912H322.252Z" fill="#FF7700"/>
<path d="M327.554 281.899V279.95H324.477V281.899H327.554Z" fill="#FF7700"/>
<path d="M332.856 281.899V279.95H329.78V281.899H332.856Z" fill="#FF7700"/>
<path d="M338.159 281.899V279.95H335.082V281.899H338.159Z" fill="#FF7700"/>
<path d="M343.46 281.899V279.95H340.384V281.899H343.46Z" fill="#FF7700"/>
<path d="M349.416 281.912V279.963H346.339V281.912H349.416Z" fill="#FF7700"/>
<path d="M311.661 286.309V279.95H308.584V286.309H311.661Z" fill="#FF7700"/>
<path d="M316.962 286.323V283.378H313.885V286.323H316.962Z" fill="#FF7700"/>
<path d="M322.265 286.309V283.365H319.188V286.309H322.265Z" fill="#FF7700"/>
<path d="M327.566 286.309V283.365H324.49V286.309H327.566Z" fill="#FF7700"/>
<path d="M332.869 286.309V283.365H329.792V286.309H332.869Z" fill="#FF7700"/>
<path d="M338.171 286.309V283.365H335.094V286.309H338.171Z" fill="#FF7700"/>
<path d="M343.474 286.309V283.365H340.397V286.309H343.474Z" fill="#FF7700"/>
<path d="M349.416 286.309V283.365H346.339V286.309H349.416Z" fill="#FF7700"/>
<path d="M468.225 386.869V377.799L461.932 382.34L468.225 386.869Z" fill="#FFB70D"/>
<path d="M163.057 212.74L160.632 215.165L163.057 217.589L165.483 215.165L163.057 212.74Z" fill="#FF7700"/>
<path d="M167.517 208.099L165.092 210.524L167.517 212.949L169.942 210.524L167.517 208.099Z" fill="#FF7700"/>
<path d="M167.061 216.889L164.636 219.313L167.061 221.738L169.486 219.313L167.061 216.889Z" fill="#FF7700"/>
<path d="M171.508 212.273L169.083 214.698L171.508 217.123L173.934 214.698L171.508 212.273Z" fill="#FF7700"/>
</g>
<defs>
<linearGradient id="paint0_linear_50_2" x1="56.015" y1="455.274" x2="598.464" y2="455.274" gradientUnits="userSpaceOnUse">
<stop stop-color="#2D0244"/>
<stop offset="0.34" stop-color="#53A5F8"/>
<stop offset="0.38" stop-color="#6ABDFA"/>
<stop offset="0.42" stop-color="#7DD2FC"/>
<stop offset="0.47" stop-color="#88DEFE"/>
<stop offset="0.51" stop-color="#8CE2FE"/>
<stop offset="0.56" stop-color="#79CEFC"/>
<stop offset="0.67" stop-color="#53A5F8"/>
<stop offset="0.73" stop-color="#497CCA"/>
<stop offset="0.82" stop-color="#3D4891"/>
<stop offset="0.9" stop-color="#342267"/>
<stop offset="0.96" stop-color="#2F0B4E"/>
<stop offset="1" stop-color="#2D0244"/>
</linearGradient>
<linearGradient id="paint1_linear_50_2" x1="251.504" y1="293.9" x2="405.988" y2="293.9" gradientUnits="userSpaceOnUse">
<stop stop-color="#86E1FE"/>
<stop offset="0.02" stop-color="#82D6F5"/>
<stop offset="0.15" stop-color="#638CB5"/>
<stop offset="0.28" stop-color="#4A5182"/>
<stop offset="0.38" stop-color="#39265E"/>
<stop offset="0.46" stop-color="#2E0C47"/>
<stop offset="0.51" stop-color="#2A023F"/>
<stop offset="1" stop-color="#86E1FE"/>
</linearGradient>
<linearGradient id="paint2_linear_50_2" x1="329.012" y1="282.292" x2="329.012" y2="0.255859" gradientUnits="userSpaceOnUse">
<stop stop-color="#86E1FE"/>
<stop offset="0.03" stop-color="#80D1F1"/>
<stop offset="0.097" stop-color="#6CA1C7"/>
<stop offset="1" stop-color="#251D3A" stop-opacity="0.302"/>
</linearGradient>
<linearGradient id="paint3_linear_50_2" x1="328.959" y1="327.311" x2="339.298" y2="152.464" gradientUnits="userSpaceOnUse">
<stop stop-color="#40A7BB"/>
<stop offset="1" stop-color="#8CEBFE"/>
</linearGradient>
<linearGradient id="paint4_linear_50_2" x1="177.273" y1="283.418" x2="488.002" y2="283.418" gradientUnits="userSpaceOnUse">
<stop stop-color="#41A8BD"/>
<stop offset="0.715" stop-color="#92FBFF"/>
<stop offset="1" stop-color="#8CE2FE"/>
</linearGradient>
<clipPath id="clip0_50_2">
<rect width="658" height="456" fill="white" transform="translate(0 0.255859)"/>
</clipPath>
</defs>
</svg>
