<svg width="470" height="369" viewBox="0 0 470 369" fill="none" xmlns="http://www.w3.org/2000/svg">
<g clip-path="url(#clip0_58_832)">
<path opacity="0.2" d="M183.942 368.45C284.777 368.147 366.272 285.555 365.969 183.976C365.665 82.3971 283.676 0.297012 182.842 0.600352C82.0078 0.903692 0.511981 83.4956 0.815876 185.074C1.11977 286.653 83.1083 368.753 183.942 368.45Z" fill="url(#paint0_radial_58_832)"/>
<path d="M275.377 329.287C271.51 329.4 267.679 328.517 264.251 326.721L174.316 274.654C171.349 272.943 169.718 270.535 169.718 267.91C169.718 264.762 172.054 261.615 176.096 259.233L262.459 209.238C269.975 204.875 281.409 204.414 287.95 208.197L377.885 260.264C380.852 261.987 382.483 264.382 382.483 267.007C382.483 270.156 380.147 273.302 376.092 275.684L289.742 325.679C285.335 328.079 280.392 329.321 275.377 329.286V329.287ZM264.82 325.779C271.001 329.386 282.003 328.927 289.222 324.75L375.621 274.755C379.33 272.598 381.456 269.796 381.456 267.044C381.456 264.813 380.022 262.755 377.401 261.243L287.466 209.176C281.286 205.568 270.283 206.027 263.064 210.217L176.665 260.225C172.956 262.369 170.83 265.183 170.83 267.923C170.83 270.155 172.264 272.212 174.873 273.725L264.82 325.779Z" fill="url(#paint1_linear_58_832)"/>
<path opacity="0.1" d="M275.377 340.604C271.512 340.716 267.683 339.837 264.251 338.051L174.316 285.984C171.349 284.273 169.718 281.881 169.718 279.24C169.718 276.092 172.054 272.945 176.096 270.563L262.483 220.555C269.999 216.202 281.433 215.731 287.974 219.514L377.908 271.581C380.875 273.292 382.507 275.684 382.507 278.324C382.507 281.473 380.171 284.619 376.116 287.001L289.766 336.997C285.354 339.407 280.401 340.649 275.377 340.605V340.604ZM276.873 218.08C272.038 218.038 267.273 219.233 263.027 221.551L176.664 271.546C172.956 273.691 170.83 276.505 170.83 279.244C170.83 281.476 172.263 283.533 174.872 285.046L264.819 337.113C271 340.72 282.003 340.249 289.222 336.071L375.622 286.073C379.33 283.929 381.457 281.115 381.457 278.375C381.457 276.143 380.023 274.086 377.402 272.573L287.467 220.506C284.199 218.806 280.553 217.971 276.873 218.08Z" fill="url(#paint2_linear_58_832)"/>
<path d="M381.965 217.545H337.362L287.703 188.798C281.311 185.079 270.136 185.55 262.756 189.827L214.915 217.545H170.312V247.569C170.127 250.049 171.548 252.528 174.589 254.276L264.536 306.343C270.927 310.062 282.103 309.579 289.483 305.302L375.858 255.267C379.69 253.047 381.73 250.233 381.928 247.531L381.965 217.545Z" fill="url(#paint3_linear_58_832)"/>
<path d="M173.143 249.64V219.614H217.732L265.598 191.896C273.015 187.619 284.141 187.16 290.558 190.867L340.205 219.614H382.002V217.544H337.362L287.703 188.796C281.311 185.077 270.136 185.549 262.756 189.825L214.915 217.544H170.312V247.568C170.127 250.047 171.548 252.526 174.589 254.275L175.096 254.56C174.432 253.932 173.913 253.166 173.576 252.316C173.239 251.466 173.091 250.552 173.143 249.639V249.64Z" fill="#E04D01"/>
<path d="M264.549 276.342L174.601 224.275C168.21 220.556 169.014 214.11 176.394 209.833L262.756 159.814C270.173 155.537 281.3 155.078 287.703 158.772L377.637 210.839C384.041 214.558 383.237 221.004 375.857 225.281L289.495 275.275C282.113 279.553 270.94 280.061 264.549 276.342Z" fill="url(#paint4_linear_58_832)"/>
<path d="M377.637 210.839L287.702 158.775C283.822 156.781 279.461 155.922 275.118 156.295C278.288 156.42 281.388 157.267 284.182 158.775L374.129 210.841C380.52 214.56 379.717 221.007 372.337 225.283L285.975 275.278C282.17 277.362 277.943 278.553 273.613 278.761C279.125 279.123 284.628 277.916 289.485 275.278L375.848 225.283C383.237 221.004 384.039 214.546 377.637 210.839Z" fill="#6EE8FC"/>
<path d="M275.563 263.946C272.629 264.032 269.722 263.362 267.12 261.999L200.165 223.236C199.138 222.755 198.261 222.004 197.625 221.064C196.989 220.123 196.62 219.027 196.555 217.893C196.555 215.414 198.359 212.935 201.499 211.15L265.783 173.96C271.482 170.666 280.16 170.316 285.129 173.192L352.13 211.881C353.156 212.363 354.033 213.114 354.668 214.054C355.303 214.995 355.674 216.09 355.74 217.224C355.74 219.703 353.936 222.182 350.796 223.967L286.516 261.156C283.162 263.007 279.391 263.968 275.563 263.946ZM267.886 260.673C272.435 263.301 280.421 262.954 285.7 259.892L349.983 222.703C352.629 221.165 354.149 219.194 354.149 217.285C354.076 216.425 353.775 215.6 353.278 214.896C352.78 214.192 352.103 213.635 351.318 213.281L284.365 174.518C279.815 171.89 271.829 172.237 266.551 175.287L202.268 212.473C199.623 214.011 198.102 215.982 198.102 217.891C198.175 218.751 198.476 219.576 198.973 220.28C199.471 220.984 200.148 221.542 200.933 221.895L267.886 260.673Z" fill="#480689"/>
<path d="M268.578 276.342L178.643 224.275C172.253 220.556 173.043 214.11 180.436 209.833L266.835 159.814C270.578 157.756 274.736 156.574 278.999 156.355C273.365 155.92 267.726 157.12 262.755 159.814L176.392 209.808C168.975 214.085 168.208 220.556 174.6 224.25L264.547 276.317C268.492 278.326 272.926 279.164 277.33 278.734C274.272 278.597 271.282 277.78 268.578 276.342Z" fill="#FF7700"/>
<g opacity="0.5">
<path d="M381.965 176.179H337.362L287.703 147.419C281.311 143.7 270.136 144.183 262.756 148.461L214.915 176.179H170.312V206.203C170.127 208.682 171.548 211.161 174.589 212.91L264.536 264.977C270.927 268.696 282.103 268.224 289.483 263.948L375.845 213.953C379.678 211.734 381.718 208.92 381.915 206.205L381.965 176.179Z" fill="url(#paint5_linear_58_832)"/>
<path d="M173.143 208.273V178.249H217.732L265.598 150.543C273.015 146.267 284.141 145.795 290.558 149.502L340.204 178.249H382V176.179H337.362L287.703 147.419C281.311 143.7 270.136 144.183 262.756 148.461L214.915 176.179H170.312V206.203C170.127 208.682 171.548 211.161 174.589 212.91L175.096 213.208C174.432 212.578 173.913 211.81 173.575 210.957C173.238 210.105 173.09 209.189 173.143 208.274V208.273Z" fill="#E04D01"/>
<path d="M264.549 234.95L174.602 182.884C168.211 179.165 169.014 172.706 176.394 168.442L262.757 118.447C270.174 114.171 281.3 113.699 287.703 117.406L377.638 169.473C384.041 173.192 383.238 179.651 375.858 183.927L289.495 233.921C282.113 238.186 270.94 238.657 264.549 234.95Z" fill="url(#paint6_linear_58_832)"/>
<path d="M377.637 169.473L287.702 117.408C283.824 115.409 279.462 114.549 275.118 114.928C278.287 115.053 281.386 115.901 284.179 117.408L374.127 169.474C380.517 173.193 379.714 179.652 372.334 183.928L285.972 233.923C282.169 236.01 277.94 237.197 273.61 237.394C279.121 237.754 284.622 236.551 289.483 233.923L375.846 183.928C383.237 179.65 384.039 173.179 377.637 169.473Z" fill="#6EE8FC"/>
<path d="M275.576 222.554C272.638 222.635 269.728 221.966 267.12 220.608L200.165 181.833C199.14 181.354 198.263 180.605 197.627 179.667C196.992 178.728 196.621 177.635 196.555 176.503C196.555 174.023 198.36 171.544 201.5 169.747L265.783 132.558C271.482 129.248 280.173 128.913 285.13 131.777L352.131 170.528C353.156 171.007 354.033 171.756 354.669 172.694C355.304 173.633 355.675 174.726 355.741 175.858C355.741 178.338 353.936 180.817 350.796 182.614L286.517 219.802C283.166 221.646 279.398 222.594 275.576 222.554ZM276.726 131.304C273.196 131.259 269.713 132.112 266.601 133.784L202.318 170.973C199.672 172.51 198.152 174.481 198.152 176.39C198.225 177.25 198.525 178.075 199.023 178.779C199.521 179.483 200.198 180.041 200.983 180.394L267.887 219.319C272.436 221.947 280.422 221.6 285.701 218.551L349.984 181.362C352.629 179.837 354.149 177.854 354.149 175.945C354.075 175.085 353.774 174.261 353.277 173.557C352.779 172.853 352.103 172.295 351.318 171.941L284.365 133.178C282.019 131.913 279.39 131.268 276.726 131.304Z" fill="#480689"/>
<path d="M268.579 234.95L178.644 182.884C172.253 179.165 173.044 172.706 180.437 168.442L266.836 118.447C270.578 116.385 274.737 115.199 279.001 114.975C273.383 114.548 267.761 115.754 262.808 118.447L176.395 168.494C168.978 172.758 168.211 179.229 174.602 182.935L264.55 235.002C268.49 237.026 272.923 237.886 277.332 237.481C274.263 237.302 271.273 236.438 268.58 234.952L268.579 234.95Z" fill="#FF7700"/>
</g>
<path d="M381.965 134.812H337.362L287.703 106.077C281.311 102.358 270.136 102.829 262.756 107.106L214.915 134.812H170.312V164.848C170.127 167.328 171.548 169.807 174.589 171.542L264.536 223.609C270.927 227.328 282.103 226.845 289.483 222.568L375.845 172.573C379.678 170.354 381.718 167.54 381.915 164.838L381.965 134.812Z" fill="url(#paint7_linear_58_832)"/>
<path d="M173.143 166.919V136.882H217.732L265.598 109.176C273.015 104.9 284.141 104.441 290.558 108.135L340.204 136.882H382V134.813H337.362L287.703 106.065C281.311 102.346 270.136 102.829 262.756 107.107L214.915 134.813H170.312V164.849C170.127 167.328 171.548 169.807 174.589 171.543L175.096 171.841C174.432 171.213 173.913 170.447 173.576 169.597C173.239 168.747 173.091 167.833 173.143 166.919Z" fill="#E04D01"/>
<path d="M264.549 193.596L174.601 141.529C168.21 137.81 169.014 131.364 176.394 127.087L262.756 77.0925C270.173 72.816 281.3 72.3571 287.703 76.0512L377.637 128.118C384.041 131.837 383.237 138.283 375.857 142.56L289.495 192.554C282.113 196.832 270.94 197.29 264.549 193.596Z" fill="url(#paint8_linear_58_832)"/>
<path d="M377.637 128.118L287.703 76.0536C283.82 74.0668 279.461 73.2081 275.118 73.5743C278.286 73.7046 281.384 74.5522 284.179 76.0536L374.127 128.12C380.518 131.839 379.714 138.286 372.334 142.562L285.972 192.557C282.169 194.644 277.94 195.831 273.609 196.028C279.121 196.394 284.623 195.191 289.483 192.557L375.845 142.562C383.238 138.283 384.039 131.812 377.637 128.118Z" fill="#6EE8FC"/>
<path d="M275.563 181.187C272.629 181.274 269.722 180.604 267.12 179.241L200.165 140.478C199.14 139.994 198.264 139.243 197.629 138.303C196.993 137.363 196.622 136.269 196.555 135.135C196.555 132.656 198.359 130.177 201.499 128.392L265.783 91.2024C271.482 87.9077 280.16 87.5577 285.129 90.434L352.13 129.161C353.157 129.642 354.035 130.392 354.67 131.333C355.306 132.273 355.675 133.369 355.74 134.503C355.74 136.982 353.936 139.462 350.796 141.247L286.516 178.435C283.158 180.273 279.388 181.221 275.563 181.187ZM276.678 89.9628C273.147 89.9122 269.663 90.7655 266.553 92.442L202.268 129.633C199.623 131.17 198.102 133.141 198.102 135.05C198.175 135.91 198.476 136.735 198.973 137.439C199.471 138.144 200.148 138.701 200.933 139.054L267.886 177.817C272.435 180.457 280.421 180.111 285.7 177.049L349.983 139.858C352.629 138.321 354.149 136.35 354.149 134.441C354.076 133.581 353.775 132.756 353.278 132.052C352.78 131.348 352.103 130.79 351.318 130.437L284.365 91.6607C282 90.4615 279.373 89.8774 276.725 89.9622L276.678 89.9628Z" fill="#480689"/>
<path d="M268.579 193.596L178.644 141.529C172.253 137.81 173.044 131.364 180.437 127.087L266.836 77.0796C270.578 75.0222 274.737 73.8398 279 73.6208C273.383 73.1901 267.761 74.3909 262.807 77.0796L176.444 127.075C169.026 131.351 168.26 137.81 174.651 141.517L264.598 193.583C268.543 195.592 272.978 196.431 277.381 196.001C274.305 195.867 271.298 195.045 268.58 193.596H268.579Z" fill="#FF7700"/>
<path d="M381.965 93.458H337.362L287.703 64.7106C281.311 60.9918 270.136 61.4748 262.756 65.7519L214.915 93.458H170.312V123.482C170.127 125.961 171.548 128.44 174.589 130.189L264.536 182.256C270.927 185.975 282.103 185.492 289.483 181.227L375.845 131.232C379.678 129.001 381.718 126.199 381.915 123.484L381.965 93.458Z" fill="url(#paint9_linear_58_832)"/>
<path d="M173.143 125.552V95.5289H217.732L265.598 67.8229C273.015 63.5463 284.141 63.0751 290.558 66.7815L340.205 95.5289H382.002V93.458H337.362L287.703 64.7106C281.311 60.9918 270.136 61.4748 262.756 65.7519L214.915 93.458H170.312V123.482C170.127 125.961 171.548 128.44 174.589 130.189L175.096 130.474C174.432 129.846 173.913 129.081 173.576 128.23C173.239 127.38 173.091 126.466 173.143 125.553V125.552Z" fill="#E04D01"/>
<path d="M264.549 152.229L174.601 100.163C168.21 96.4438 169.014 89.9845 176.394 85.7086L262.756 35.7138C270.173 31.4373 281.3 30.9784 287.703 34.6848L377.637 86.7517C384.041 90.4705 383.237 96.9297 375.857 101.193L289.495 151.138C282.113 155.465 270.94 155.936 264.549 152.229Z" fill="url(#paint10_linear_58_832)"/>
<path d="M377.637 86.7517L287.702 34.6865C283.824 32.6878 279.462 31.8284 275.118 32.2073C278.287 32.332 281.386 33.1799 284.179 34.6865L374.127 86.7534C380.517 90.4722 379.714 96.9315 372.334 101.195L285.972 151.14C282.172 153.236 277.942 154.427 273.61 154.623C279.127 154.988 284.634 153.78 289.495 151.14L375.858 101.145C383.237 96.9291 384.039 90.4581 377.637 86.7517Z" fill="#6EE8FC"/>
<path d="M275.562 139.523C272.68 139.607 269.825 138.95 267.268 137.614L200.314 98.85C199.338 98.3945 198.502 97.6829 197.895 96.7906C197.287 95.8982 196.932 94.858 196.865 93.7798C196.865 91.4124 198.608 89.0444 201.649 87.2841L265.932 50.0948C271.557 46.8467 280.099 46.5002 284.97 49.3265L351.936 88.0901C352.913 88.5457 353.749 89.2572 354.356 90.1496C354.963 91.042 355.318 92.0821 355.385 93.1603C355.385 95.5283 353.642 97.8834 350.601 99.6437L286.318 136.832C283.019 138.631 279.318 139.557 275.563 139.522L275.562 139.523ZM276.725 48.2481C273.138 48.2213 269.603 49.1086 266.452 50.8267L202.168 88.0154C199.424 89.6039 197.854 91.7342 197.854 93.7051C197.926 94.6177 198.24 95.4944 198.764 96.2442C199.288 96.994 200.002 97.5896 200.833 97.9693L267.797 136.734C272.421 139.411 280.543 139.064 285.908 135.965L350.191 98.7759C352.936 97.1874 354.506 95.1189 354.506 93.0985C354.433 92.1859 354.119 91.3092 353.595 90.5594C353.071 89.8097 352.357 89.214 351.526 88.8344L284.513 50.1078C282.117 48.8334 279.436 48.1933 276.725 48.2481Z" fill="url(#paint11_linear_58_832)"/>
<path d="M268.579 152.232L178.643 100.165C172.252 96.4461 173.043 89.9869 180.436 85.7109L266.835 35.7161C270.58 33.6642 274.737 32.4822 278.999 32.2574C273.383 31.8322 267.762 33.0327 262.806 35.7161L176.444 85.7109C169.026 89.9869 168.259 96.4585 174.648 100.165L264.595 152.232C268.536 154.255 272.97 155.114 277.379 154.709C274.298 154.553 271.291 153.706 268.579 152.232Z" fill="#25BFEC"/>
<path d="M292.066 168.952L368.204 124.823C368.591 124.537 368.905 124.164 369.12 123.733C369.334 123.302 369.444 122.826 369.441 122.344V118.734C369.441 117.805 368.872 117.371 368.204 117.78L292.128 161.911C291.747 162.185 291.436 162.546 291.221 162.964C291.007 163.382 290.894 163.846 290.892 164.316V167.936C290.805 168.927 291.362 169.349 292.066 168.952Z" fill="#6DE0F6"/>
<path d="M366.475 123.866C366.854 123.588 367.164 123.224 367.379 122.805C367.593 122.385 367.707 121.921 367.711 121.449V118.077L368.121 117.842C368.814 117.43 369.358 117.842 369.358 118.796V122.404C369.361 122.885 369.251 123.361 369.037 123.792C368.822 124.223 368.508 124.597 368.121 124.883L292.044 169.014C291.34 169.41 290.808 169.014 290.808 168.06V167.824L366.475 123.866Z" fill="#267FE5"/>
<path d="M260.741 168.952L184.664 124.823C184.276 124.539 183.961 124.165 183.746 123.734C183.531 123.303 183.422 122.826 183.428 122.344V118.734C183.428 117.805 183.984 117.371 184.664 117.78L260.741 161.911C261.119 162.187 261.428 162.549 261.643 162.966C261.858 163.384 261.972 163.846 261.977 164.316V167.936C262.002 168.927 261.433 169.349 260.741 168.952Z" fill="#6DE0F6"/>
<path d="M186.321 123.866C185.943 123.587 185.634 123.223 185.42 122.803C185.205 122.384 185.091 121.92 185.085 121.449V118.077L184.69 117.842C183.985 117.43 183.453 117.842 183.453 118.796V122.404C183.447 122.886 183.557 123.362 183.772 123.794C183.987 124.225 184.301 124.598 184.69 124.883L260.766 169.014C261.458 169.41 262.002 169.014 262.002 168.06V167.824L186.321 123.866Z" fill="#267FE5"/>
<path d="M264.549 152.229L174.601 100.163C168.21 96.4438 169.014 89.9845 176.394 85.7086L262.756 35.7138C270.173 31.4373 281.3 30.9784 287.703 34.6848L377.637 86.7517C384.041 90.4705 383.237 96.9297 375.857 101.193L289.495 151.138C282.113 155.465 270.94 155.936 264.549 152.229Z" fill="url(#paint12_linear_58_832)"/>
<path d="M269.234 128.416L215.743 97.4251C211.947 95.2312 212.417 91.3883 216.818 88.8355L268.171 59.0845C272.559 56.5435 279.21 56.2605 283.005 58.4644L336.496 89.455C340.304 91.6618 339.834 95.5042 335.433 98.0446L284.081 127.796C279.692 130.337 273.016 130.611 269.234 128.416Z" fill="#6DE0F6"/>
<path d="M275.489 142.87C272.384 142.959 269.307 142.25 266.551 140.811L194.851 99.3342C192.44 97.9334 191.143 95.9625 191.143 93.7927C191.143 91.2265 193.034 88.6608 196.323 86.7516L265.118 46.922C271.161 43.4261 280.348 43.0543 285.614 46.1036L357.314 87.5824C359.724 88.9832 361.022 90.9417 361.022 93.1126C361.022 95.6913 359.131 98.257 355.842 100.166L287.085 139.982C283.529 141.92 279.537 142.915 275.489 142.87ZM276.725 45.2611C272.91 45.2288 269.149 46.1717 265.797 48.0009L196.99 87.8306C194.084 89.5044 192.428 91.6859 192.428 93.7933C192.504 94.7495 192.834 95.6678 193.384 96.4526C193.935 97.2375 194.684 97.8601 195.556 98.2558L267.255 139.746C272.2 142.585 280.853 142.226 286.515 138.916L355.26 99.0736C358.153 97.3998 359.822 95.2182 359.822 93.0985C359.822 91.4 358.707 89.8133 356.694 88.6361L284.994 47.159C282.441 45.8346 279.594 45.1819 276.721 45.2623L276.725 45.2611Z" fill="url(#paint13_linear_58_832)"/>
<path d="M215.359 97.1645C215.813 96.7846 216.301 96.4484 216.818 96.1602L268.17 66.4091C272.558 63.9299 279.209 63.5952 283.004 65.789L336.495 96.7797C336.656 96.8668 336.754 96.9656 336.891 97.0527C339.883 94.5735 339.833 91.4 336.495 89.4633L283.004 58.4726C279.209 56.2658 272.561 56.5511 268.17 59.0927L216.818 88.8461C212.591 91.2883 212.034 94.9206 215.359 97.1645Z" fill="url(#paint14_linear_58_832)"/>
<path d="M189.065 207.752V204.777C189.065 203.24 190.301 202.707 191.846 203.537L251.89 238.249C252.661 238.712 253.314 239.35 253.795 240.112C254.276 240.875 254.572 241.739 254.659 242.637V245.612C254.659 247.149 253.423 247.682 251.89 246.852L191.846 212.14C191.075 211.676 190.422 211.037 189.939 210.276C189.456 209.514 189.157 208.65 189.065 207.752Z" fill="#38025B"/>
<path opacity="0.5" d="M162.351 228.529L205.877 203.302L264.981 237.491L221.441 262.718L162.351 228.529Z" fill="#6EE8FC"/>
<path opacity="0.5" d="M162.375 224.153L205.915 198.938L265.006 233.115L221.479 258.342L162.375 224.153Z" fill="#25BFEC"/>
<path opacity="0.5" d="M264.982 237.491L265.006 233.115L221.479 258.342L221.442 262.718L264.982 237.491Z" fill="#6EE8FC"/>
<path opacity="0.5" d="M205.878 203.302L205.915 198.938L162.374 224.153L162.35 228.529L205.878 203.302Z" fill="#6EE8FC"/>
<path d="M224.223 265.445L226.696 264.057C226.899 263.899 227.058 263.692 227.16 263.455C227.261 263.219 227.301 262.96 227.276 262.704V259.728C227.186 258.83 226.888 257.965 226.405 257.203C225.922 256.442 225.268 255.803 224.495 255.34L164.475 220.556C164.18 220.337 163.834 220.2 163.47 220.156C163.105 220.113 162.736 220.165 162.398 220.308L160.076 221.634L161.719 222.056V224.721C161.806 225.618 162.102 226.483 162.583 227.245C163.064 228.007 163.716 228.646 164.488 229.109L224.531 263.82L224.223 265.445Z" fill="url(#paint15_linear_58_832)"/>
<path d="M227.277 259.668V262.705C227.291 262.934 227.256 263.162 227.175 263.376C227.094 263.59 226.969 263.784 226.808 263.945C226.896 263.707 226.942 263.455 226.944 263.201V260.177C226.856 259.26 226.555 258.377 226.063 257.599C225.571 256.822 224.903 256.171 224.113 255.701L162.883 220.273H162.771C163.364 220.191 163.966 220.328 164.465 220.657L224.508 255.368C225.268 255.824 225.912 256.449 226.392 257.195C226.872 257.94 227.175 258.787 227.277 259.668Z" fill="#6DE0F6"/>
<path d="M159.285 226.064V223.039C159.285 221.502 160.521 220.969 162.067 221.8L222.11 256.511C222.881 256.974 223.534 257.613 224.015 258.375C224.496 259.137 224.792 260.001 224.879 260.899V263.874C224.879 265.412 223.643 265.933 222.11 265.051L162.067 230.34C161.308 229.888 160.663 229.267 160.18 228.526C159.698 227.785 159.392 226.942 159.285 226.064Z" fill="url(#paint16_linear_58_832)"/>
<path d="M220.44 216.876V222.23L226.3 225.626V220.272L220.44 216.876Z" fill="#50DEFF"/>
<path d="M217.499 215.178L211.268 211.57V216.924L217.499 220.532V215.178Z" fill="#50DEFF"/>
<path d="M228.466 244.061L223.644 241.272L222.037 242.189L226.871 244.991L228.466 244.061Z" fill="#50DEFF"/>
<path d="M227.326 239.128L225.719 240.057L230.553 242.859L232.148 241.929L227.326 239.128Z" fill="#50DEFF"/>
<path d="M200.043 233.115L186.42 225.231L205.717 214.048V208.459L176.963 225.12L200.043 238.47V233.115Z" fill="#50DEFF"/>
<path d="M231.28 228.504L238.475 232.669L229.403 237.925L234.237 240.714L247.934 232.781L231.28 223.149V228.504Z" fill="#50DEFF"/>
<path d="M205.729 241.755V236.412L202.985 234.813V240.167L205.729 241.755Z" fill="#50DEFF"/>
<path d="M219.959 243.405L218.896 244.025L211.281 239.612V244.966L219.094 249.491L224.78 246.196L219.959 243.405Z" fill="#50DEFF"/>
<path d="M227.116 232.508L230.343 230.636L233.57 232.508L230.343 234.38L227.116 232.508Z" fill="#50DEFF"/>
<path d="M221.504 235.767L224.731 233.895L227.958 235.755L224.731 237.627L221.504 235.767Z" fill="#50DEFF"/>
<path d="M216.484 232.855L219.711 230.996L222.938 232.855L219.711 234.727L216.484 232.855Z" fill="#50DEFF"/>
<path d="M192.069 225.244L195.296 223.372L198.523 225.244L195.296 227.103L192.069 225.244Z" fill="#50DEFF"/>
<path d="M222.098 229.607L225.325 227.735L228.551 229.607L225.325 231.479L222.098 229.607Z" fill="#50DEFF"/>
<path d="M215.879 239.016L219.106 237.144L222.333 239.016L219.106 240.888L215.879 239.016Z" fill="#50DEFF"/>
<path opacity="0.4" d="M251.482 245.349L251.556 240.948L192.44 206.761L194.851 205.372L216.262 214.583L256.724 237.913C256.724 237.913 255.203 242.871 255.139 242.796C255.076 242.72 254.657 243.443 254.657 243.443L251.482 245.349Z" fill="#0C0F38"/>
<path d="M189.065 166.981V164.005C189.065 162.468 190.301 161.935 191.846 162.829L251.89 197.54C252.662 198.002 253.315 198.641 253.796 199.403C254.277 200.165 254.573 201.03 254.659 201.928V204.903C254.659 206.441 253.423 206.963 251.89 206.143L191.846 171.432C191.067 170.961 190.409 170.313 189.926 169.54C189.443 168.767 189.148 167.89 189.065 166.982V166.981Z" fill="#38025B"/>
<path opacity="0.5" d="M162.351 187.745L205.877 162.53L264.981 196.72L221.441 221.934L162.351 187.745Z" fill="#6EE8FC"/>
<path opacity="0.5" d="M162.375 183.382L205.915 158.155L265.006 192.344L221.479 217.571L162.375 183.382Z" fill="#25BFEC"/>
<path opacity="0.5" d="M264.982 196.72L265.006 192.344L221.479 217.571L221.442 221.937L264.982 196.72Z" fill="#6EE8FC"/>
<path opacity="0.5" d="M205.878 162.53L205.915 158.154L162.374 183.382L162.35 187.746L205.878 162.53Z" fill="#6EE8FC"/>
<path d="M224.223 224.661L226.695 223.285C226.926 223.136 227.111 222.927 227.231 222.68C227.351 222.433 227.401 222.158 227.375 221.884V218.909C227.287 218.01 226.989 217.145 226.506 216.383C226.023 215.62 225.368 214.983 224.594 214.521L164.551 179.81C164.256 179.591 163.909 179.453 163.545 179.41C163.181 179.366 162.812 179.419 162.474 179.562L160.063 180.889L161.706 181.3V183.978C161.798 184.869 162.096 185.727 162.577 186.483C163.058 187.239 163.708 187.872 164.475 188.331L224.518 223.043L224.223 224.661Z" fill="url(#paint17_linear_58_832)"/>
<path d="M227.277 218.897V221.874C227.289 222.102 227.254 222.33 227.173 222.543C227.092 222.757 226.968 222.951 226.808 223.113C226.896 222.875 226.942 222.624 226.944 222.37V219.32C226.856 218.404 226.555 217.521 226.063 216.743C225.571 215.965 224.903 215.315 224.113 214.845L162.883 179.415H162.771C163.364 179.333 163.966 179.47 164.465 179.799L224.508 214.51C225.28 214.974 225.933 215.612 226.414 216.374C226.895 217.136 227.19 218.001 227.278 218.899L227.277 218.897Z" fill="#6DE0F6"/>
<path d="M159.285 185.29V182.315C159.285 180.777 160.521 180.244 162.067 181.075L222.11 215.786C222.882 216.249 223.535 216.887 224.016 217.649C224.497 218.412 224.793 219.277 224.879 220.175V223.15C224.879 224.687 223.643 225.209 222.11 224.326L162.067 189.615C161.302 189.158 160.653 188.53 160.17 187.78C159.688 187.029 159.385 186.177 159.285 185.29Z" fill="url(#paint18_linear_58_832)"/>
<path d="M220.44 176.105V181.459L226.3 184.855V179.501L220.44 176.105Z" fill="#50DEFF"/>
<path d="M217.499 174.393L211.268 170.799V176.153L217.499 179.747V174.393Z" fill="#50DEFF"/>
<path d="M228.466 203.29L223.644 200.488L222.037 201.418L226.871 204.219L228.466 203.29Z" fill="#50DEFF"/>
<path d="M227.326 198.356L225.719 199.286L230.553 202.075L232.148 201.158L227.326 198.356Z" fill="#50DEFF"/>
<path d="M200.043 192.344L186.42 184.46L205.717 173.266V167.688L176.963 184.349L200.043 197.699V192.344Z" fill="#50DEFF"/>
<path d="M231.28 187.732L238.475 191.897L229.403 197.153L234.237 199.943L247.934 192.009L231.28 182.377V187.732Z" fill="#50DEFF"/>
<path d="M205.729 200.984V195.63L202.985 194.042V199.396L205.729 200.984Z" fill="#50DEFF"/>
<path d="M219.959 202.633L218.896 203.24L211.281 198.84V204.193L219.094 208.718L224.78 205.424L219.959 202.633Z" fill="#50DEFF"/>
<path d="M227.116 191.737L230.343 189.865L233.57 191.737L230.343 193.609L227.116 191.737Z" fill="#50DEFF"/>
<path d="M221.504 194.985L224.731 193.125L227.958 194.985L224.731 196.857L221.504 194.985Z" fill="#50DEFF"/>
<path d="M216.484 192.084L219.711 190.224L222.938 192.084L219.711 193.956L216.484 192.084Z" fill="#50DEFF"/>
<path d="M192.069 184.46L195.296 182.6L198.523 184.46L195.296 186.332L192.069 184.46Z" fill="#50DEFF"/>
<path d="M222.098 188.836L225.325 186.964L228.551 188.836L225.325 190.695L222.098 188.836Z" fill="#50DEFF"/>
<path d="M215.879 198.245L219.106 196.373L222.333 198.245L219.106 200.117L215.879 198.245Z" fill="#50DEFF"/>
<path opacity="0.4" d="M251.482 204.53L251.556 200.142L192.44 165.94L194.851 164.564L216.262 173.762L256.724 197.166C256.724 197.166 255.203 202.124 255.139 202.049C255.076 201.974 254.657 202.696 254.657 202.696L251.482 204.53Z" fill="#0C0F38"/>
<path d="M366.474 207.752V204.777C366.474 203.24 365.238 202.707 363.704 203.537L303.661 238.249C302.889 238.712 302.235 239.35 301.752 240.112C301.269 240.874 300.97 241.739 300.88 242.637V245.612C300.88 247.149 302.116 247.682 303.661 246.852L363.704 212.14C364.476 211.677 365.129 211.039 365.61 210.277C366.091 209.514 366.387 208.65 366.474 207.752Z" fill="#38025B"/>
<path opacity="0.5" d="M393.204 228.529L349.676 203.302L290.583 237.491L334.111 262.718L393.204 228.529Z" fill="#6EE8FC"/>
<path opacity="0.5" d="M393.177 224.153L349.651 198.938L290.546 233.115L334.074 258.342L393.177 224.153Z" fill="#25BFEC"/>
<path opacity="0.5" d="M290.583 237.491L290.546 233.115L334.074 258.342L334.111 262.718L290.583 237.491Z" fill="#6EE8FC"/>
<path opacity="0.5" d="M349.674 203.302L349.649 198.938L393.177 224.153L393.201 228.529L349.674 203.302Z" fill="#6EE8FC"/>
<path d="M331.317 265.445L328.845 264.057C328.619 263.902 328.438 263.689 328.32 263.441C328.203 263.193 328.154 262.918 328.177 262.645V259.67C328.267 258.771 328.566 257.907 329.049 257.145C329.532 256.383 330.186 255.745 330.959 255.281L391.002 220.57C391.297 220.351 391.643 220.214 392.007 220.17C392.372 220.126 392.741 220.179 393.079 220.322L395.415 221.648L393.772 222.07V224.735C393.682 225.633 393.383 226.498 392.9 227.26C392.417 228.022 391.763 228.66 390.991 229.123L330.947 263.834L331.317 265.445Z" fill="url(#paint19_linear_58_832)"/>
<path d="M328.252 259.668V262.705C328.238 262.934 328.272 263.162 328.353 263.376C328.434 263.59 328.559 263.784 328.721 263.945C328.632 263.707 328.586 263.455 328.585 263.201V260.177C328.675 259.261 328.978 258.379 329.47 257.602C329.961 256.825 330.628 256.174 331.416 255.702L392.658 220.273H392.757C392.169 220.194 391.572 220.331 391.076 220.657L331.032 255.368C330.271 255.823 329.623 256.447 329.141 257.193C328.659 257.939 328.354 258.787 328.251 259.67L328.252 259.668Z" fill="#6DE0F6"/>
<path d="M396.231 226.064V223.039C396.231 221.502 394.994 220.969 393.461 221.8L333.418 256.511C332.646 256.974 331.992 257.612 331.509 258.374C331.026 259.136 330.727 260.001 330.637 260.899V263.874C330.637 265.412 331.873 265.933 333.418 265.051L393.461 230.34C394.219 229.888 394.863 229.267 395.343 228.525C395.823 227.784 396.127 226.941 396.231 226.063V226.064Z" fill="url(#paint20_linear_58_832)"/>
<path d="M335.112 216.876V222.23L329.252 225.626V220.272L335.112 216.876Z" fill="#50DEFF"/>
<path d="M338.066 215.178L344.285 211.57V216.924L338.066 220.532V215.178Z" fill="#50DEFF"/>
<path d="M327.089 244.061L331.923 241.272L333.518 242.189L328.696 244.991L327.089 244.061Z" fill="#50DEFF"/>
<path d="M328.239 239.128L329.834 240.057L325.012 242.859L323.405 241.929L328.239 239.128Z" fill="#50DEFF"/>
<path d="M355.522 233.115L369.145 225.231L349.835 214.048V208.459L378.59 225.12L355.522 238.47V233.115Z" fill="#50DEFF"/>
<path d="M324.283 228.504L317.076 232.669L326.15 237.925L321.316 240.714L307.619 232.781L324.281 223.149L324.283 228.504Z" fill="#50DEFF"/>
<path d="M349.823 241.755V236.412L352.567 234.813V240.167L349.823 241.755Z" fill="#50DEFF"/>
<path d="M335.607 243.405L336.67 244.025L344.285 239.612V244.966L336.459 249.491L330.772 246.196L335.607 243.405Z" fill="#50DEFF"/>
<path d="M328.436 232.508L325.209 230.636L321.982 232.508L325.209 234.38L328.436 232.508Z" fill="#50DEFF"/>
<path d="M334.062 235.767L330.835 233.895L327.608 235.755L330.835 237.627L334.062 235.767Z" fill="#50DEFF"/>
<path d="M339.08 232.855L335.842 230.996L332.615 232.855L335.842 234.727L339.08 232.855Z" fill="#50DEFF"/>
<path d="M363.484 225.244L360.257 223.372L357.03 225.244L360.257 227.103L363.484 225.244Z" fill="#50DEFF"/>
<path d="M333.456 229.607L330.229 227.735L327.002 229.607L330.229 231.479L333.456 229.607Z" fill="#50DEFF"/>
<path d="M339.674 239.016L336.447 237.144L333.22 239.016L336.447 240.888L339.674 239.016Z" fill="#50DEFF"/>
<path opacity="0.4" d="M304.071 245.349L303.997 240.948L363.1 206.761L360.701 205.372L339.278 214.583L298.829 237.913C298.829 237.913 300.35 242.871 300.413 242.796C300.477 242.72 300.883 243.443 300.883 243.443L304.071 245.349Z" fill="#0C0F38"/>
<path d="M366.474 166.981V164.005C366.474 162.468 365.238 161.935 363.704 162.829L303.661 197.54C302.887 198.002 302.232 198.64 301.749 199.402C301.266 200.164 300.968 201.029 300.88 201.928V204.903C300.88 206.441 302.116 206.963 303.661 206.143L363.704 171.432C364.484 170.962 365.142 170.314 365.623 169.541C366.104 168.767 366.396 167.89 366.474 166.982V166.981Z" fill="#38025B"/>
<path opacity="0.5" d="M393.204 187.745L349.676 162.53L290.583 196.72L334.111 221.934L393.204 187.745Z" fill="#6EE8FC"/>
<path opacity="0.5" d="M393.177 183.382L349.651 158.154L290.546 192.344L334.074 217.571L393.177 183.382Z" fill="#25BFEC"/>
<path opacity="0.5" d="M290.583 196.72L290.546 192.344L334.074 217.571L334.111 221.934L290.583 196.72Z" fill="#6EE8FC"/>
<path opacity="0.5" d="M349.674 162.53L349.649 158.154L393.176 183.382L393.201 187.746L349.674 162.53Z" fill="#6EE8FC"/>
<path d="M331.316 224.661L328.844 223.285C328.618 223.133 328.437 222.923 328.319 222.676C328.202 222.43 328.152 222.156 328.176 221.884V218.909C328.265 218.01 328.563 217.145 329.046 216.383C329.529 215.62 330.184 214.983 330.958 214.521L391.001 179.81C391.296 179.591 391.643 179.453 392.007 179.41C392.371 179.366 392.74 179.419 393.078 179.562L395.414 180.889L393.771 181.3V183.978C393.681 184.876 393.383 185.741 392.9 186.503C392.417 187.265 391.763 187.903 390.99 188.366L330.947 223.077L331.316 224.661Z" fill="url(#paint21_linear_58_832)"/>
<path d="M328.251 218.897V221.874C328.239 222.102 328.274 222.33 328.355 222.544C328.436 222.757 328.56 222.952 328.72 223.114C328.632 222.876 328.586 222.624 328.584 222.37V219.321C328.674 218.405 328.977 217.523 329.469 216.746C329.961 215.969 330.627 215.318 331.415 214.846L392.657 179.417H392.756C392.168 179.338 391.571 179.474 391.075 179.801L331.032 214.512C330.258 214.974 329.603 215.612 329.12 216.374C328.637 217.136 328.339 218.002 328.25 218.9L328.251 218.897Z" fill="#6DE0F6"/>
<path d="M396.231 185.29V182.315C396.231 180.777 394.994 180.244 393.461 181.075L333.418 215.786C332.644 216.248 331.989 216.886 331.506 217.648C331.023 218.41 330.725 219.276 330.637 220.175V223.15C330.637 224.687 331.873 225.209 333.418 224.326L393.461 189.615C394.225 189.158 394.873 188.529 395.353 187.779C395.834 187.028 396.134 186.175 396.231 185.289V185.29Z" fill="url(#paint22_linear_58_832)"/>
<path d="M335.112 176.105V181.459L329.252 184.855V179.501L335.112 176.105Z" fill="#50DEFF"/>
<path d="M338.066 174.393L344.285 170.799V176.153L338.066 179.747V174.393Z" fill="#50DEFF"/>
<path d="M327.089 203.29L331.923 200.488L333.518 201.418L328.696 204.219L327.089 203.29Z" fill="#50DEFF"/>
<path d="M328.239 198.356L329.834 199.286L325.012 202.075L323.405 201.158L328.239 198.356Z" fill="#50DEFF"/>
<path d="M355.522 192.344L369.145 184.46L349.835 173.266V167.688L378.59 184.349L355.522 197.699V192.344Z" fill="#50DEFF"/>
<path d="M324.283 187.732L317.076 191.897L326.15 197.153L321.316 199.943L307.619 192.009L324.281 182.377L324.283 187.732Z" fill="#50DEFF"/>
<path d="M349.823 200.984V195.63L352.567 194.042V199.396L349.823 200.984Z" fill="#50DEFF"/>
<path d="M335.607 202.633L336.67 203.24L344.285 198.84V204.193L336.459 208.718L330.772 205.424L335.607 202.633Z" fill="#50DEFF"/>
<path d="M328.436 191.737L325.209 189.865L321.982 191.737L325.209 193.609L328.436 191.737Z" fill="#50DEFF"/>
<path d="M334.062 194.985L330.835 193.125L327.608 194.985L330.835 196.857L334.062 194.985Z" fill="#50DEFF"/>
<path d="M339.08 192.084L335.842 190.224L332.615 192.084L335.842 193.956L339.08 192.084Z" fill="#50DEFF"/>
<path d="M363.483 184.46L360.257 182.6L357.03 184.46L360.257 186.332L363.483 184.46Z" fill="#50DEFF"/>
<path d="M333.456 188.836L330.229 186.964L327.002 188.836L330.229 190.695L333.456 188.836Z" fill="#50DEFF"/>
<path d="M339.674 198.245L336.447 196.373L333.22 198.245L336.447 200.117L339.674 198.245Z" fill="#50DEFF"/>
<path opacity="0.4" d="M304.071 204.53L303.997 200.142L363.1 165.94L360.701 164.564L339.278 173.762L298.829 197.166C298.829 197.166 300.35 202.125 300.413 202.049C300.477 201.974 300.883 202.697 300.883 202.697L304.071 204.53Z" fill="#0C0F38"/>
<g opacity="0.4">
<path d="M276.231 71.0698L273.165 69.2972L276.231 67.5246L279.281 69.2972L276.231 71.0698Z" fill="#2C75E4"/>
<path opacity="0.1" d="M282.35 74.6174L279.285 72.8448L282.35 71.0722L285.416 72.8448L282.35 74.6174Z" fill="#2C75E4"/>
<path opacity="0.4" d="M288.482 78.1603L285.416 76.3877L288.482 74.6151L291.533 76.3877L288.482 78.1603Z" fill="#2C75E4"/>
<path d="M294.601 81.7062L291.536 79.9318L294.601 78.1591L297.667 79.9318L294.601 81.7062Z" fill="#2C75E4"/>
<path opacity="0.4" d="M300.733 85.2514L297.667 83.4788L300.733 81.7062L303.784 83.4788L300.733 85.2514Z" fill="#2C75E4"/>
<path d="M306.855 88.7967L303.789 87.0241L306.855 85.2514L309.92 87.0241L306.855 88.7967Z" fill="#2C75E4"/>
<path d="M312.984 92.3443L309.917 90.5717L312.984 88.799L316.05 90.5717L312.984 92.3443Z" fill="#2C75E4"/>
<path d="M319.103 95.8872L316.052 94.1146L319.103 92.3419L322.169 94.1146L319.103 95.8872Z" fill="#2C75E4"/>
<path opacity="0.1" d="M325.234 99.433L322.169 97.6586L325.235 95.886L328.286 97.6586L325.234 99.433Z" fill="#2C75E4"/>
<path d="M270.074 74.6274L267.023 72.8548L270.074 71.0822L273.14 72.8548L270.074 74.6274Z" fill="#2C75E4"/>
<path d="M276.206 78.1727L273.141 76.4001L276.206 74.6274L279.272 76.4001L276.206 78.1727Z" fill="#2C75E4"/>
<path d="M282.325 81.7185L279.274 79.9459L282.325 78.1733L285.391 79.9459L282.325 81.7185Z" fill="#2C75E4"/>
<path d="M288.457 85.2638L285.392 83.4912L288.457 81.7185L291.523 83.4912L288.457 85.2638Z" fill="#2C75E4"/>
<path d="M294.576 88.809L291.525 87.0364L294.576 85.2638L297.642 87.0364L294.576 88.809Z" fill="#2C75E4"/>
<path d="M300.708 92.3543L297.643 90.5817L300.708 88.8091L303.774 90.5817L300.708 92.3543Z" fill="#2C75E4"/>
<path d="M306.827 95.8996L303.776 94.1269L306.827 92.3543L309.893 94.1269L306.827 95.8996Z" fill="#2C75E4"/>
<path d="M312.96 99.4454L309.894 97.6728L312.96 95.9001L316.025 97.6728L312.96 99.4454Z" fill="#2C75E4"/>
<path d="M319.078 102.991L316.027 101.218L319.078 99.4454L322.144 101.218L319.078 102.991Z" fill="#2C75E4"/>
<path d="M263.931 78.1856L260.865 76.413L263.931 74.6404L266.996 76.413L263.931 78.1856Z" fill="#2C75E4"/>
<path d="M270.05 81.7309L266.999 79.9583L270.05 78.1856L273.115 79.9583L270.05 81.7309Z" fill="#2C75E4"/>
<path d="M276.182 85.2785L273.116 83.5059L276.182 81.7332L279.248 83.5059L276.182 85.2785Z" fill="#2C75E4"/>
<path opacity="0.1" d="M282.301 88.8214L279.25 87.0488L282.301 85.2762L285.366 87.0488L282.301 88.8214Z" fill="#2C75E4"/>
<path opacity="0.4" d="M288.435 92.3667L285.367 90.5923L288.435 88.8214L291.501 90.594L288.435 92.3667Z" fill="#2C75E4"/>
<path opacity="0.4" d="M294.552 95.9119L291.501 94.1393L294.552 92.3666L297.617 94.1393L294.552 95.9119Z" fill="#2C75E4"/>
<path d="M300.683 99.4701L297.618 97.6851L300.683 95.9125L303.734 97.6851L300.683 99.4701Z" fill="#2C75E4"/>
<path d="M306.802 103.015L303.736 101.23L306.802 99.4701L309.869 101.23L306.802 103.015Z" fill="#2C75E4"/>
<path d="M312.934 106.561L309.869 104.788L312.934 103.015L315.985 104.788L312.934 106.561Z" fill="#2C75E4"/>
<path opacity="0.4" d="M257.774 81.7433L254.724 79.9706L257.774 78.198L260.84 79.9706L257.774 81.7433Z" fill="#2C75E4"/>
<path opacity="0.4" d="M263.906 85.2885L260.84 83.5159L263.906 81.7433L266.957 83.5159L263.906 85.2885Z" fill="#2C75E4"/>
<path opacity="0.1" d="M270.025 88.8337L266.96 87.0611L270.025 85.2885L273.092 87.0611L270.025 88.8337Z" fill="#2C75E4"/>
<path d="M276.157 92.379L273.091 90.6187L276.157 88.8337L279.208 90.6187L276.157 92.379Z" fill="#2C75E4"/>
<path d="M282.275 95.9372L279.21 94.1646L282.275 92.3796L285.341 94.1646L282.275 95.9372Z" fill="#2C75E4"/>
<path d="M288.408 99.4824L285.342 97.7098L288.408 95.9372L291.459 97.7098L288.408 99.4824Z" fill="#2C75E4"/>
<path opacity="0.4" d="M294.526 103.028L291.461 101.253L294.526 99.4807L297.592 101.253L294.526 103.028Z" fill="#2C75E4"/>
<path d="M300.658 106.573L297.593 104.8L300.658 103.028L303.709 104.8L300.658 106.573Z" fill="#2C75E4"/>
<path d="M306.778 110.118L303.712 108.346L306.778 106.573L309.844 108.346L306.778 110.118Z" fill="#2C75E4"/>
<path d="M251.63 85.3132L248.564 83.5282L251.631 81.7679L254.681 83.5282L251.63 85.3132Z" fill="#2C75E4"/>
<path d="M257.749 88.8585L254.698 87.0858L257.749 85.3132L260.815 87.0858L257.749 88.8585Z" fill="#2C75E4"/>
<path d="M263.881 92.4037L260.815 90.6311L263.881 88.8585L266.932 90.6311L263.881 92.4037Z" fill="#2C75E4"/>
<path d="M270.001 95.9496L266.935 94.1769L270.001 92.4043L273.066 94.1769L270.001 95.9496Z" fill="#2C75E4"/>
<path d="M276.131 99.4948L273.066 97.7222L276.131 95.9496L279.197 97.7222L276.131 99.4948Z" fill="#2C75E4"/>
<path d="M282.251 103.04L279.2 101.267L282.251 99.4948L285.317 101.267L282.251 103.04Z" fill="#2C75E4"/>
<path d="M288.382 106.585L285.317 104.813L288.382 103.04L291.448 104.813L288.382 106.585Z" fill="#2C75E4"/>
<path d="M294.502 110.131L291.451 108.358L294.502 106.585L297.568 108.358L294.502 110.131Z" fill="#2C75E4"/>
<path d="M300.634 113.676L297.568 111.904L300.634 110.131L303.7 111.904L300.634 113.676Z" fill="#2C75E4"/>
<path d="M245.474 88.8732L242.423 87.1005L245.474 85.3279L248.54 87.1005L245.474 88.8732Z" fill="#2C75E4"/>
<path d="M251.605 92.4166L248.54 90.644L251.605 88.8714L254.671 90.644L251.605 92.4166Z" fill="#2C75E4"/>
<path opacity="0.4" d="M257.725 95.9619L254.674 94.1893L257.725 92.4167L260.791 94.1875L257.725 95.9619Z" fill="#2C75E4"/>
<path d="M263.856 99.5072L260.79 97.7345L263.856 95.9619L266.922 97.7345L263.856 99.5072Z" fill="#2C75E4"/>
<path opacity="0.1" d="M269.975 103.052L266.924 101.28L269.975 99.5072L273.041 101.28L269.975 103.052Z" fill="#2C75E4"/>
<path d="M276.107 106.6L273.042 104.825L276.107 103.052L279.173 104.825L276.107 106.6Z" fill="#2C75E4"/>
<path d="M282.226 110.143L279.175 108.37L282.226 106.598L285.292 108.37L282.226 110.143Z" fill="#2C75E4"/>
<path d="M288.358 113.689L285.292 111.914L288.358 110.142L291.409 111.914L288.358 113.689Z" fill="#2C75E4"/>
<path d="M294.477 117.234L291.412 115.461L294.477 113.689L297.543 115.461L294.477 117.234Z" fill="#2C75E4"/>
<path d="M239.33 92.429L236.264 90.6564L239.33 88.8838L242.396 90.6564L239.33 92.429Z" fill="#2C75E4"/>
<path d="M245.449 95.9743L242.398 94.2016L245.449 92.429L248.514 94.2016L245.449 95.9743Z" fill="#2C75E4"/>
<path opacity="0.4" d="M251.581 99.5195L248.515 97.7469L251.581 95.9743L254.632 97.7469L251.581 99.5195Z" fill="#2C75E4"/>
<path d="M257.7 103.065L254.634 101.292L257.7 99.5195L260.766 101.292L257.7 103.065Z" fill="#2C75E4"/>
<path d="M263.835 106.61L260.769 104.837L263.835 103.065L266.885 104.837L263.835 106.61Z" fill="#2C75E4"/>
<path opacity="0.1" d="M269.951 110.156L266.885 108.383L269.951 106.611L273.016 108.383L269.951 110.156Z" fill="#2C75E4"/>
<path opacity="0.4" d="M276.082 113.701L273.016 111.928L276.082 110.156L279.133 111.928L276.082 113.701Z" fill="#2C75E4"/>
<path d="M282.202 117.259L279.136 115.474L282.202 113.701L285.267 115.474L282.202 117.259Z" fill="#2C75E4"/>
<path opacity="0.1" d="M288.334 120.804L285.268 119.031L288.334 117.259L291.385 119.031L288.334 120.804Z" fill="#2C75E4"/>
<path d="M233.173 95.9866L230.123 94.214L233.173 92.4414L236.239 94.214L233.173 95.9866Z" fill="#2C75E4"/>
<path opacity="0.4" d="M239.305 99.5342L236.239 97.7616L239.305 95.989L242.356 97.7616L239.305 99.5342Z" fill="#2C75E4"/>
<path d="M245.424 103.077L242.374 101.304L245.424 99.5319L248.49 101.304L245.424 103.077Z" fill="#2C75E4"/>
<path d="M251.556 106.622L248.49 104.848L251.556 103.075L254.607 104.848L251.556 106.622Z" fill="#2C75E4"/>
<path d="M257.676 110.182L254.61 108.397L257.676 106.625L260.741 108.397L257.676 110.182Z" fill="#2C75E4"/>
<path d="M263.807 113.726L260.741 111.941L263.807 110.181L266.873 111.941L263.807 113.726Z" fill="#2C75E4"/>
<path d="M269.926 117.271L266.875 115.498L269.926 113.726L272.992 115.498L269.926 117.271Z" fill="#2C75E4"/>
<path opacity="0.4" d="M276.058 120.816L272.992 119.044L276.058 117.271L279.123 119.044L276.058 120.816Z" fill="#2C75E4"/>
<path d="M282.177 124.362L279.126 122.589L282.177 120.816L285.243 122.589L282.177 124.362Z" fill="#2C75E4"/>
<path d="M227.029 99.5442L223.964 97.7716L227.029 95.999L230.095 97.7716L227.029 99.5442Z" fill="#2C75E4"/>
<path opacity="0.1" d="M233.149 103.089L230.098 101.329L233.149 99.5442L236.215 101.329L233.149 103.089Z" fill="#2C75E4"/>
<path d="M239.28 106.648L236.215 104.875L239.28 103.09L242.346 104.875L239.28 106.648Z" fill="#2C75E4"/>
<path d="M245.399 110.195L242.349 108.423L245.399 106.65L248.466 108.423L245.399 110.195Z" fill="#2C75E4"/>
<path d="M251.531 113.738L248.466 111.966L251.531 110.193L254.597 111.966L251.531 113.738Z" fill="#2C75E4"/>
<path d="M257.65 117.283L254.6 115.511L257.65 113.738L260.717 115.509L257.65 117.283Z" fill="#2C75E4"/>
<path opacity="0.4" d="M263.783 120.829L260.717 119.056L263.783 117.283L266.848 119.056L263.783 120.829Z" fill="#2C75E4"/>
<path d="M269.901 124.375L266.851 122.602L269.901 120.829L272.967 122.602L269.901 124.375Z" fill="#2C75E4"/>
<path d="M276.033 127.922L272.968 126.15L276.033 124.377L279.084 126.15L276.033 127.922Z" fill="#2C75E4"/>
</g>
<path d="M95.9176 264.219C111.061 264.219 123.337 251.908 123.337 236.723C123.337 221.538 111.061 209.228 95.9176 209.228C80.7742 209.228 68.498 221.538 68.498 236.723C68.498 251.908 80.7742 264.219 95.9176 264.219Z" fill="url(#paint23_linear_58_832)"/>
<path opacity="0.23" d="M71.5141 306.552C83.5579 306.552 93.3213 300.896 93.3213 293.92C93.3213 286.943 83.5579 281.288 71.5141 281.288C59.4704 281.288 49.707 286.943 49.707 293.92C49.707 300.896 59.4704 306.552 71.5141 306.552Z" fill="#070A28"/>
<path d="M440.467 127.748C443.308 120.276 439.571 111.91 432.12 109.061C424.669 106.213 416.325 109.96 413.485 117.432C410.644 124.904 414.381 133.27 421.832 136.119C429.283 138.968 437.627 135.22 440.467 127.748Z" fill="#00D2FF"/>
<path opacity="0.48" d="M456.285 142.325C463.454 142.325 469.265 138.962 469.265 134.813C469.265 130.664 463.454 127.3 456.285 127.3C449.116 127.3 443.305 130.664 443.305 134.813C443.305 138.962 449.116 142.325 456.285 142.325Z" fill="#070A28"/>
<path d="M121.741 160.621C120.577 160.624 119.438 160.28 118.469 159.633C117.499 158.986 116.743 158.065 116.296 156.987C115.848 155.909 115.73 154.722 115.956 153.577C116.181 152.431 116.741 151.379 117.563 150.552C118.386 149.726 119.434 149.163 120.576 148.934C121.718 148.705 122.902 148.821 123.978 149.268C125.054 149.714 125.974 150.47 126.621 151.441C127.268 152.411 127.613 153.553 127.613 154.72C127.613 156.283 126.995 157.782 125.894 158.889C124.793 159.995 123.3 160.618 121.741 160.621ZM121.741 151.299C121.066 151.297 120.405 151.495 119.842 151.87C119.28 152.244 118.841 152.778 118.58 153.402C118.32 154.027 118.251 154.716 118.381 155.38C118.511 156.044 118.835 156.655 119.312 157.135C119.788 157.615 120.396 157.942 121.058 158.075C121.72 158.208 122.407 158.141 123.031 157.882C123.655 157.624 124.189 157.186 124.564 156.623C124.94 156.06 125.14 155.398 125.141 154.721C125.141 153.816 124.783 152.947 124.146 152.306C123.509 151.665 122.644 151.303 121.741 151.299Z" fill="#6EE1F8"/>
<path d="M438.41 246.525L435.236 249.707L448.226 262.733L451.399 259.551L438.41 246.525Z" fill="#FFB70D"/>
<path d="M448.205 246.476L435.215 259.502L438.389 262.684L451.378 249.658L448.205 246.476Z" fill="#FFB70D"/>
</g>
<defs>
<radialGradient id="paint0_radial_58_832" cx="0" cy="0" r="1" gradientUnits="userSpaceOnUse" gradientTransform="translate(192.117 184.734) rotate(132.24) scale(248.735 251.402)">
<stop offset="0.1125" stop-color="#FF860D"/>
<stop offset="1" stop-color="#120D3D" stop-opacity="0.04"/>
</radialGradient>
<linearGradient id="paint1_linear_58_832" x1="169.718" y1="267.467" x2="382.483" y2="267.467" gradientUnits="userSpaceOnUse">
<stop stop-color="#BF6E16"/>
<stop offset="0.51" stop-color="#6EE1F8"/>
<stop offset="0.78" stop-color="#6EE8FC"/>
<stop offset="1" stop-color="#6EE8FC"/>
</linearGradient>
<linearGradient id="paint2_linear_58_832" x1="169.718" y1="278.785" x2="382.507" y2="278.785" gradientUnits="userSpaceOnUse">
<stop stop-color="#D4088C"/>
<stop offset="0.23" stop-color="#8D139B"/>
<stop offset="0.51" stop-color="#6EE1F8"/>
<stop offset="0.78" stop-color="#6EE8FC"/>
<stop offset="1" stop-color="#6EE8FC"/>
</linearGradient>
<linearGradient id="paint3_linear_58_832" x1="150.187" y1="247.568" x2="408.212" y2="247.568" gradientUnits="userSpaceOnUse">
<stop stop-color="#E04D01"/>
<stop offset="1" stop-color="#2C75E4"/>
</linearGradient>
<linearGradient id="paint4_linear_58_832" x1="593.847" y1="869.447" x2="645.152" y2="736.609" gradientUnits="userSpaceOnUse">
<stop stop-color="#8D139B"/>
<stop offset="0.17" stop-color="#851BA1"/>
<stop offset="0.43" stop-color="#6E33B2"/>
<stop offset="0.76" stop-color="#4958CD"/>
<stop offset="1" stop-color="#2979E4"/>
</linearGradient>
<linearGradient id="paint5_linear_58_832" x1="170.296" y1="198.233" x2="406.65" y2="221.837" gradientUnits="userSpaceOnUse">
<stop stop-color="#FFB70D"/>
<stop offset="1" stop-color="#2C75E4"/>
</linearGradient>
<linearGradient id="paint6_linear_58_832" x1="552.571" y1="833.635" x2="603.867" y2="700.807" gradientUnits="userSpaceOnUse">
<stop stop-color="#8D139B"/>
<stop offset="0.17" stop-color="#851BA1"/>
<stop offset="0.43" stop-color="#6E33B2"/>
<stop offset="0.76" stop-color="#4958CD"/>
<stop offset="1" stop-color="#2979E4"/>
</linearGradient>
<linearGradient id="paint7_linear_58_832" x1="150.187" y1="164.841" x2="408.212" y2="164.841" gradientUnits="userSpaceOnUse">
<stop stop-color="#FF7700"/>
<stop offset="0.94" stop-color="#3168DA"/>
<stop offset="1" stop-color="#2C75E4"/>
</linearGradient>
<linearGradient id="paint8_linear_58_832" x1="511.506" y1="797.734" x2="562.672" y2="664.998" gradientUnits="userSpaceOnUse">
<stop stop-color="#8D139B"/>
<stop offset="0.17" stop-color="#851BA1"/>
<stop offset="0.43" stop-color="#6E33B2"/>
<stop offset="0.76" stop-color="#4958CD"/>
<stop offset="1" stop-color="#2979E4"/>
</linearGradient>
<linearGradient id="paint9_linear_58_832" x1="150.187" y1="123.484" x2="408.212" y2="123.484" gradientUnits="userSpaceOnUse">
<stop stop-color="#FFA04D"/>
<stop offset="1" stop-color="#4669C3"/>
</linearGradient>
<linearGradient id="paint10_linear_58_832" x1="470.229" y1="761.935" x2="521.404" y2="629.19" gradientUnits="userSpaceOnUse">
<stop stop-color="#267FE5"/>
<stop offset="0.17" stop-color="#2C87E7"/>
<stop offset="0.44" stop-color="#3D9FEB"/>
<stop offset="0.78" stop-color="#59C4F2"/>
<stop offset="1" stop-color="#6EE1F8"/>
</linearGradient>
<linearGradient id="paint11_linear_58_832" x1="196.865" y1="93.4718" x2="355.385" y2="93.4718" gradientUnits="userSpaceOnUse">
<stop stop-color="#6DE0F6"/>
<stop offset="0.16" stop-color="#68D8F5"/>
<stop offset="0.41" stop-color="#5AC0F1"/>
<stop offset="0.73" stop-color="#439BEA"/>
<stop offset="1" stop-color="#2C75E4"/>
</linearGradient>
<linearGradient id="paint12_linear_58_832" x1="470.229" y1="761.935" x2="521.404" y2="629.19" gradientUnits="userSpaceOnUse">
<stop stop-color="#267FE5"/>
<stop offset="0.17" stop-color="#2C87E7"/>
<stop offset="0.44" stop-color="#3D9FEB"/>
<stop offset="0.78" stop-color="#59C4F2"/>
<stop offset="1" stop-color="#6EE1F8"/>
</linearGradient>
<linearGradient id="paint13_linear_58_832" x1="191.992" y1="101.859" x2="351.436" y2="54.8489" gradientUnits="userSpaceOnUse">
<stop stop-color="#BD6D15"/>
<stop offset="0.54" stop-color="#4D22A3"/>
<stop offset="0.93" stop-color="#3168DA"/>
<stop offset="1" stop-color="#2C75E4"/>
</linearGradient>
<linearGradient id="paint14_linear_58_832" x1="213.206" y1="77.0752" x2="339.069" y2="77.0752" gradientUnits="userSpaceOnUse">
<stop stop-color="#CE7E12"/>
<stop offset="0.63" stop-color="#4D22A3"/>
<stop offset="1" stop-color="#2C75E4"/>
</linearGradient>
<linearGradient id="paint15_linear_58_832" x1="291.87" y1="2490.63" x2="342.066" y2="2539.91" gradientUnits="userSpaceOnUse">
<stop stop-color="#2C75E4"/>
<stop offset="0.06" stop-color="#3168DA"/>
<stop offset="0.37" stop-color="#4D22A3"/>
<stop offset="0.52" stop-color="#58068E"/>
<stop offset="0.66" stop-color="#5B078F"/>
<stop offset="0.76" stop-color="#640A92"/>
<stop offset="0.85" stop-color="#740F98"/>
<stop offset="0.93" stop-color="#8B17A0"/>
<stop offset="1" stop-color="#A31FA9"/>
</linearGradient>
<linearGradient id="paint16_linear_58_832" x1="319.924" y1="2503.69" x2="228.946" y2="2503.69" gradientUnits="userSpaceOnUse">
<stop stop-color="#A31FA9"/>
<stop offset="0.07" stop-color="#8B17A0"/>
<stop offset="0.15" stop-color="#740F98"/>
<stop offset="0.24" stop-color="#640A92"/>
<stop offset="0.34" stop-color="#5B078F"/>
<stop offset="0.48" stop-color="#58068E"/>
<stop offset="0.63" stop-color="#4D22A3"/>
<stop offset="0.94" stop-color="#3168DA"/>
<stop offset="1" stop-color="#2C75E4"/>
</linearGradient>
<linearGradient id="paint17_linear_58_832" x1="256.598" y1="2510.97" x2="306.631" y2="2560.4" gradientUnits="userSpaceOnUse">
<stop stop-color="#2C75E4"/>
<stop offset="0.06" stop-color="#3168DA"/>
<stop offset="0.37" stop-color="#4D22A3"/>
<stop offset="0.52" stop-color="#58068E"/>
<stop offset="0.66" stop-color="#5B078F"/>
<stop offset="0.76" stop-color="#640A92"/>
<stop offset="0.85" stop-color="#740F98"/>
<stop offset="0.93" stop-color="#8B17A0"/>
<stop offset="1" stop-color="#A31FA9"/>
</linearGradient>
<linearGradient id="paint18_linear_58_832" x1="284.766" y1="2524.09" x2="193.722" y2="2524.09" gradientUnits="userSpaceOnUse">
<stop stop-color="#A31FA9"/>
<stop offset="0.07" stop-color="#8B17A0"/>
<stop offset="0.15" stop-color="#740F98"/>
<stop offset="0.24" stop-color="#640A92"/>
<stop offset="0.34" stop-color="#5B078F"/>
<stop offset="0.48" stop-color="#58068E"/>
<stop offset="0.63" stop-color="#4D22A3"/>
<stop offset="0.94" stop-color="#3168DA"/>
<stop offset="1" stop-color="#2C75E4"/>
</linearGradient>
<linearGradient id="paint19_linear_58_832" x1="-580.624" y1="973.918" x2="-530.471" y2="1023.27" gradientUnits="userSpaceOnUse">
<stop stop-color="#58068E"/>
<stop offset="0.28" stop-color="#4D22A3"/>
<stop offset="0.89" stop-color="#3168DA"/>
<stop offset="1" stop-color="#2C75E4"/>
</linearGradient>
<linearGradient id="paint20_linear_58_832" x1="-552.519" y1="987.004" x2="-643.498" y2="987.004" gradientUnits="userSpaceOnUse">
<stop stop-color="#2C75E4"/>
<stop offset="0.06" stop-color="#3168DA"/>
<stop offset="0.37" stop-color="#4D22A3"/>
<stop offset="0.52" stop-color="#58068E"/>
<stop offset="0.66" stop-color="#5B078F"/>
<stop offset="0.76" stop-color="#640A92"/>
<stop offset="0.85" stop-color="#740F98"/>
<stop offset="0.93" stop-color="#8B17A0"/>
<stop offset="1" stop-color="#A31FA9"/>
</linearGradient>
<linearGradient id="paint21_linear_58_832" x1="-615.864" y1="994.322" x2="-565.737" y2="1043.67" gradientUnits="userSpaceOnUse">
<stop stop-color="#58068E"/>
<stop offset="0.28" stop-color="#4D22A3"/>
<stop offset="0.89" stop-color="#3168DA"/>
<stop offset="1" stop-color="#2C75E4"/>
</linearGradient>
<linearGradient id="paint22_linear_58_832" x1="-587.743" y1="1007.4" x2="-678.722" y2="1007.4" gradientUnits="userSpaceOnUse">
<stop stop-color="#2C75E4"/>
<stop offset="0.06" stop-color="#3168DA"/>
<stop offset="0.37" stop-color="#4D22A3"/>
<stop offset="0.52" stop-color="#58068E"/>
<stop offset="0.66" stop-color="#5B078F"/>
<stop offset="0.76" stop-color="#640A92"/>
<stop offset="0.85" stop-color="#740F98"/>
<stop offset="0.93" stop-color="#8B17A0"/>
<stop offset="1" stop-color="#A31FA9"/>
</linearGradient>
<linearGradient id="paint23_linear_58_832" x1="118.402" y1="217.696" x2="80.0181" y2="255.974" gradientUnits="userSpaceOnUse">
<stop stop-color="#FFB70D"/>
<stop offset="1" stop-color="#E04D01" stop-opacity="0.302"/>
</linearGradient>
<clipPath id="clip0_58_832">
<rect width="469" height="369" fill="white" transform="translate(0.265625)"/>
</clipPath>
</defs>
</svg>
